<svg width="1600" height="1200" viewBox="0 0 1600 1200" fill="none" xmlns="http://www.w3.org/2000/svg">
<rect width="1600" height="1200" fill=""/>
<path d="M502.92 1039.4C524.94 1034.73 585.14 1020.43 571.77 979.685C557.13 935.025 504.13 936.295 477.89 943.355C451.65 950.425 405.67 982.255 419.68 1017.71C434.83 1056 482.02 1043.82 502.92 1039.4Z" fill="white" stroke="black" stroke-width="3" stroke-miterlimit="10" stroke-linecap="round" stroke-linejoin="round"/>
<path d="M542.571 1034.11C559.438 1034.11 573.111 1020.44 573.111 1003.57C573.111 986.708 559.438 973.035 542.571 973.035C525.704 973.035 512.031 986.708 512.031 1003.57C512.031 1020.44 525.704 1034.11 542.571 1034.11Z" fill="white" stroke="black" stroke-width="3" stroke-miterlimit="10" stroke-linecap="round" stroke-linejoin="round"/>
<path d="M516.281 988.025C516.281 988.025 512.191 965.895 516.281 964.375C520.371 962.865 531.701 975.025 531.701 975.025C531.701 975.025 526.361 976.895 523.081 980.055C519.801 983.215 516.281 988.025 516.281 988.025Z" fill="white" stroke="black" stroke-width="3" stroke-miterlimit="10" stroke-linecap="round" stroke-linejoin="round"/>
<path d="M564.211 982.025C564.211 982.025 588.921 978.515 589.591 984.235C590.261 989.955 572.761 998.965 572.761 998.965C572.761 998.965 571.361 991.635 568.861 988.025C566.361 984.415 564.211 982.025 564.211 982.025Z" fill="white" stroke="black" stroke-width="3" stroke-miterlimit="10" stroke-linecap="round" stroke-linejoin="round"/>
<path d="M433.271 970.655C433.271 970.655 405.331 996.685 412.481 1027.81C420.111 1061.01 481.711 1083.2 508.171 1050.02C529.371 1023.44 493.701 1008.64 482.941 1025.46C467.841 1049.05 402.991 1050.85 433.271 970.655Z" fill="black" stroke="black" stroke-width="3" stroke-miterlimit="10" stroke-linecap="round" stroke-linejoin="round"/>
<path d="M523.081 1004.25C523.081 1004.25 504.311 1001.22 492.871 1005.43" stroke="black" stroke-width="3" stroke-miterlimit="10" stroke-linecap="round" stroke-linejoin="round"/>
<path d="M560.49 1015.53C560.49 1015.53 576.46 1024.33 579.33 1027.81" stroke="black" stroke-width="3" stroke-miterlimit="10" stroke-linecap="round" stroke-linejoin="round"/>
<path d="M523.08 1009.64C523.08 1009.64 506.51 1009.3 495.23 1014.69" stroke="black" stroke-width="3" stroke-miterlimit="10" stroke-linecap="round" stroke-linejoin="round"/>
<path d="M557.211 1021.67C557.211 1021.67 572.601 1034.02 575.381 1043.36" stroke="black" stroke-width="3" stroke-miterlimit="10" stroke-linecap="round" stroke-linejoin="round"/>
<path d="M560.49 687.305L1073.76 682.265" stroke="black" stroke-width="3" stroke-miterlimit="10" stroke-linecap="round" stroke-linejoin="round"/>
<path d="M924.371 964.245L1041.05 962.855L1031.61 998.045L924.371 998.305V964.245Z" fill="white" stroke="black" stroke-width="3" stroke-miterlimit="10" stroke-linecap="round" stroke-linejoin="round"/>
<path d="M647.179 532.365C647.179 532.365 611.469 582.335 619.549 622.715C627.619 663.085 674.02 689.845 745.72 687.315C739.66 747.875 750.61 965.925 750.61 965.925L924.369 964.245L1025.31 962.845V669.635L884.549 561.025C884.539 561.035 817.419 534.095 647.179 532.365Z" fill="black" stroke="black" stroke-width="3" stroke-miterlimit="10" stroke-linecap="round" stroke-linejoin="round"/>
<path d="M827.471 585.365L917.301 667.125L924.371 964.245" stroke="black" stroke-width="3" stroke-miterlimit="10" stroke-linecap="round" stroke-linejoin="round"/>
<path d="M736.631 966.045L947.921 964.245L939.851 998.245L747.411 998.965L736.631 966.045Z" fill="white" stroke="black" stroke-width="3" stroke-miterlimit="10" stroke-linecap="round" stroke-linejoin="round"/>
<path d="M1015.21 998.305V1021.67L1076.67 1065.22L924.371 1066.55V998.305H1015.21Z" fill="white" stroke="black" stroke-width="3" stroke-miterlimit="10" stroke-linecap="round" stroke-linejoin="round"/>
<path d="M751.77 998.965L924.37 998.305V1023.94L985.45 1065.81L753.32 1068.58L751.77 998.965Z" fill="white" stroke="black" stroke-width="3" stroke-miterlimit="10" stroke-linecap="round" stroke-linejoin="round"/>
<path d="M783.17 497.105L787.6 447.085L784.07 394.595L787.6 447.085L825.96 418.345C825.96 418.345 776 348.675 753.79 345.145C741.17 354.225 731.08 339.595 731.08 339.595C731.08 339.595 663.14 341.755 644.98 406.355C684.35 418.975 712.92 426.645 712.92 426.645L720.99 395.615L703.33 480.905L783.17 497.105Z" fill="white" stroke="black" stroke-width="3" stroke-miterlimit="10" stroke-linecap="round" stroke-linejoin="round"/>
<path d="M644.971 406.345C644.971 406.345 620.881 515.715 625.601 523.795C630.311 531.865 761.571 558.455 795.891 559.685C830.211 560.915 820.041 509.985 809.631 504.105C799.211 498.225 703.331 480.895 703.331 480.895L712.921 426.635L644.971 406.345Z" fill="white" stroke="black" stroke-width="3" stroke-miterlimit="10" stroke-linecap="round" stroke-linejoin="round"/>
<path d="M789.121 446.325L819.541 423.215L843.121 463.235L819.541 504.615L783.211 496.755L789.121 446.325Z" fill="white" stroke="black" stroke-width="3" stroke-miterlimit="10" stroke-linecap="round" stroke-linejoin="round"/>
<path d="M790.38 345.385C812.45 337.935 803.71 296.075 791.89 279.275C770.95 249.495 719.47 254.545 706.09 294.925C703.17 303.725 685.23 307.585 692.21 321.675C697.09 331.515 716.69 326.395 716.69 326.395C716.69 326.395 777.17 349.845 790.38 345.385Z" fill="black" stroke="black" stroke-width="3" stroke-miterlimit="10" stroke-linecap="round" stroke-linejoin="round"/>
<path d="M731.081 339.585L736.381 324.445C736.381 324.445 730.831 316.875 731.081 312.585C731.331 308.295 722.751 311.325 725.021 302.495C727.291 293.665 738.391 303.505 743.951 305.775C749.511 308.045 759.791 302.635 765.151 302.245C768.801 301.975 772.501 305.505 773.551 307.845C775.671 312.595 772.721 319.405 767.171 322.685C761.621 325.965 753.291 326.475 753.291 326.475L752.461 346.025C752.461 346.025 751.291 350.145 740.431 347.145C729.561 344.125 731.081 339.585 731.081 339.585Z" fill="white" stroke="black" stroke-width="3" stroke-miterlimit="10" stroke-linecap="round" stroke-linejoin="round"/>
<path d="M306.891 561.985H1312.22" stroke="black" stroke-width="3" stroke-miterlimit="10" stroke-linecap="round" stroke-linejoin="round"/>
<path d="M419.691 1102.67L560.491 561.985" stroke="black" stroke-width="3" stroke-miterlimit="10"/>
<path d="M434.83 561.985L619.54 1125.38" stroke="black" stroke-width="3" stroke-miterlimit="10"/>
<path d="M1063.16 561.985L1250.9 1125.38" stroke="black" stroke-width="3" stroke-miterlimit="10"/>
<path d="M1051.05 1095.09L1191.85 561.985" stroke="black" stroke-width="3" stroke-miterlimit="10"/>
<path d="M363.5 495.025C363.5 495.025 344.66 447.755 318.08 435.645" stroke="black" stroke-width="3" stroke-miterlimit="10" stroke-linecap="round" stroke-linejoin="round"/>
<path d="M318.08 435.645C318.08 435.645 297.81 403.425 289.73 412.765C278.7 425.525 318.08 435.645 318.08 435.645Z" fill="#565656" stroke="black" stroke-width="3" stroke-miterlimit="10" stroke-linecap="round" stroke-linejoin="round"/>
<path d="M344.312 460.005C337.092 444.385 316.102 474.085 316.102 474.085C316.102 474.085 348.242 468.505 344.312 460.005Z" fill="#565656" stroke="black" stroke-width="3" stroke-miterlimit="10" stroke-linecap="round" stroke-linejoin="round"/>
<path d="M378.051 376.675C381.841 424.365 392.431 495.915 392.431 495.915L378.051 376.675Z" fill="black"/>
<path d="M378.051 376.675C381.841 424.365 392.431 495.915 392.431 495.915" stroke="black" stroke-width="3" stroke-miterlimit="10" stroke-linecap="round" stroke-linejoin="round"/>
<path d="M375.719 331.415C381.759 330.815 399.629 384.035 377.489 381.475C357.859 379.205 375.719 331.415 375.719 331.415Z" fill="#565656" stroke="black" stroke-width="3" stroke-miterlimit="10" stroke-linecap="round" stroke-linejoin="round"/>
<path d="M380.641 404.055C380.641 404.055 370.231 386.525 353.071 385.175C335.911 383.825 333.221 385.175 333.221 385.175" stroke="black" stroke-width="3" stroke-miterlimit="10" stroke-linecap="round" stroke-linejoin="round"/>
<path d="M332.55 383.325C329.47 363.155 299.41 387.365 299.41 387.365C299.41 387.365 334.65 397.115 332.55 383.325Z" fill="#565656" stroke="black" stroke-width="3" stroke-miterlimit="10" stroke-linecap="round" stroke-linejoin="round"/>
<path d="M383.281 427.235C383.281 427.235 391.581 410.515 412.461 398.965C428.271 390.215 437.191 387.625 437.191 387.625" stroke="black" stroke-width="3" stroke-miterlimit="10" stroke-linecap="round" stroke-linejoin="round"/>
<path d="M438.201 387.625C431.631 363.485 487.321 378.575 487.321 378.575C487.321 378.575 442.871 404.785 438.201 387.625Z" fill="#565656" stroke="black" stroke-width="3" stroke-miterlimit="10" stroke-linecap="round" stroke-linejoin="round"/>
<path d="M423.471 495.925C423.471 495.925 422.461 465.075 433.561 456.335" stroke="black" stroke-width="3" stroke-miterlimit="10" stroke-linecap="round" stroke-linejoin="round"/>
<path d="M472.301 428.025C472.301 428.025 418.841 438.795 432.681 456.325C442.021 468.155 472.301 428.025 472.301 428.025Z" fill="#565656" stroke="black" stroke-width="3" stroke-miterlimit="10" stroke-linecap="round" stroke-linejoin="round"/>
<path d="M410.23 442.165C422.72 436.305 425.37 472.695 425.37 472.695C425.37 472.695 398 447.905 410.23 442.165Z" fill="#565656" stroke="black" stroke-width="3" stroke-miterlimit="10" stroke-linecap="round" stroke-linejoin="round"/>
<path d="M440.4 495.025H349.9V561.975H440.4V495.025Z" fill="#565656" stroke="black" stroke-width="3" stroke-miterlimit="10" stroke-linecap="round" stroke-linejoin="round"/>
<path d="M783.211 562.045L875.921 374.045H1125.57L1043.49 562.045H783.211Z" fill="#DADADA" stroke="black" stroke-width="3" stroke-miterlimit="10" stroke-linecap="round" stroke-linejoin="round"/>
<path d="M977.36 458.995C977.36 458.995 967.77 456.385 960.96 461.185C958.01 463.265 948.7 470.525 953.57 476.575C958.44 482.635 967.52 477.335 971.06 472.035C974.59 466.735 977.36 458.995 977.36 458.995Z" fill="white" stroke="black" stroke-width="3" stroke-miterlimit="10" stroke-linecap="round" stroke-linejoin="round"/>
<path d="M1237.95 542.975L1270.92 288.275L1121.45 206.855" stroke="black" stroke-width="3" stroke-miterlimit="10" stroke-linecap="round" stroke-linejoin="round"/>
<path d="M1121.45 206.855L1049.19 237.465L1122.88 283.225L1121.45 206.855Z" fill="#DADADA" stroke="black" stroke-width="3" stroke-miterlimit="10" stroke-linecap="round" stroke-linejoin="round"/>
<path d="M1085.07 282.385C1095.63 282.385 1104.18 273.829 1104.18 263.275C1104.18 252.721 1095.63 244.165 1085.07 244.165C1074.52 244.165 1065.96 252.721 1065.96 263.275C1065.96 273.829 1074.52 282.385 1085.07 282.385Z" fill="white" stroke="black" stroke-width="3" stroke-miterlimit="10" stroke-linecap="round" stroke-linejoin="round"/>
<path d="M1285.83 540.355H1188.78V560.985H1285.83V540.355Z" fill="#DADADA" stroke="black" stroke-width="3" stroke-miterlimit="10" stroke-linecap="round" stroke-linejoin="round"/>
<path d="M963.71 246.425L953.32 239.355C953.32 239.355 927.96 269.385 935.78 275.565C944.34 282.335 963.71 246.425 963.71 246.425Z" fill="white" stroke="black" stroke-width="3" stroke-miterlimit="10" stroke-linecap="round" stroke-linejoin="round"/>
<path d="M971.26 246.585C984.25 246.585 994.78 236.055 994.78 223.065C994.78 210.075 984.25 199.545 971.26 199.545C958.271 199.545 947.74 210.075 947.74 223.065C947.74 236.055 958.271 246.585 971.26 246.585Z" fill="#DADADA" stroke="black" stroke-width="3" stroke-miterlimit="10" stroke-linecap="round" stroke-linejoin="round"/>
<path d="M971.26 238.145C978.959 238.145 985.2 231.904 985.2 224.205C985.2 216.506 978.959 210.265 971.26 210.265C963.561 210.265 957.32 216.506 957.32 224.205C957.32 231.904 963.561 238.145 971.26 238.145Z" fill="white" stroke="black" stroke-width="3" stroke-miterlimit="10" stroke-linecap="round" stroke-linejoin="round"/>
<path d="M938.881 259.315C938.881 259.315 938.691 263.625 941.911 267.035C943.741 268.975 947.501 270.025 947.501 270.025C947.501 270.025 940.271 279.525 935.731 275.365C931.181 271.195 938.881 259.315 938.881 259.315Z" fill="#DADADA" stroke="black" stroke-width="3" stroke-miterlimit="10" stroke-linecap="round" stroke-linejoin="round"/>
<path d="M730.911 159.915C747.728 159.915 761.361 146.282 761.361 129.465C761.361 112.648 747.728 99.0151 730.911 99.0151C714.094 99.0151 700.461 112.648 700.461 129.465C700.461 146.282 714.094 159.915 730.911 159.915Z" fill="#DADADA" stroke="black" stroke-width="3" stroke-miterlimit="10" stroke-linecap="round" stroke-linejoin="round"/>
<path d="M754.471 110.185C766.861 112.085 775.711 117.395 777.051 124.945C779.211 137.115 760.801 148.335 736.291 152.685C711.781 157.035 690.431 152.855 688.271 140.685C687.071 133.895 692.181 126.715 701.201 120.955" stroke="black" stroke-width="3" stroke-miterlimit="10" stroke-linecap="round" stroke-linejoin="round"/>
<path d="M775.32 87.405C778.849 87.405 781.71 84.5442 781.71 81.0151C781.71 77.486 778.849 74.6249 775.32 74.6249C771.791 74.6249 768.93 77.486 768.93 81.0151C768.93 84.5442 771.791 87.405 775.32 87.405Z" fill="white" stroke="black" stroke-width="3" stroke-miterlimit="10" stroke-linecap="round" stroke-linejoin="round"/>
<path d="M675.82 170.435C679.349 170.435 682.21 167.574 682.21 164.045C682.21 160.516 679.349 157.655 675.82 157.655C672.291 157.655 669.43 160.516 669.43 164.045C669.43 167.574 672.291 170.435 675.82 170.435Z" fill="white" stroke="black" stroke-width="3" stroke-miterlimit="10" stroke-linecap="round" stroke-linejoin="round"/>
<path d="M494.71 270.775C508.827 270.775 520.27 259.331 520.27 245.215C520.27 231.099 508.827 219.655 494.71 219.655C480.594 219.655 469.15 231.099 469.15 245.215C469.15 259.331 480.594 270.775 494.71 270.775Z" fill="white" stroke="black" stroke-width="3" stroke-miterlimit="10" stroke-linecap="round" stroke-linejoin="round"/>
<path d="M501.78 254.125L487.99 250.925" stroke="black" stroke-width="3" stroke-miterlimit="10" stroke-linecap="round" stroke-linejoin="round"/>
<path d="M508.18 246.895L499.93 237.135" stroke="black" stroke-width="3" stroke-miterlimit="10" stroke-linecap="round" stroke-linejoin="round"/>
<path d="M482.771 246.895C482.771 246.895 480.251 242.855 481.931 240.335C483.611 237.815 487.991 240.335 487.991 240.335C487.991 240.335 487.991 233.605 490.351 231.755C492.221 230.285 496.741 233.265 496.741 233.265" stroke="black" stroke-width="3" stroke-miterlimit="10" stroke-linecap="round" stroke-linejoin="round"/>
<path d="M521.132 248.905C521.132 248.905 527.022 250.925 526.682 254.125C526.342 257.325 512.212 274.145 509.022 274.485C505.822 274.825 503.102 269.375 503.102 269.375C503.102 269.375 511.862 265.905 514.902 260.905C517.932 255.895 521.132 248.905 521.132 248.905Z" fill="white" stroke="black" stroke-width="3" stroke-miterlimit="10" stroke-linecap="round" stroke-linejoin="round"/>
<path d="M525.76 257.895C525.76 257.895 531.23 258.165 530.72 261.365C530.21 264.565 518.57 278.045 514.9 276.255C512.15 274.905 511.9 272.795 513.49 271.215C516.1 268.625 525.76 257.895 525.76 257.895Z" fill="white" stroke="black" stroke-width="3" stroke-miterlimit="10" stroke-linecap="round" stroke-linejoin="round"/>
<path d="M530.12 264.105L538.37 271.545C538.37 271.545 532.46 279.705 530.75 279.535C529.03 279.365 521.25 273.995 521.25 273.995L530.12 264.105Z" fill="white" stroke="black" stroke-width="3" stroke-miterlimit="10" stroke-linecap="round" stroke-linejoin="round"/>
<path d="M558.221 219.655C558.221 219.655 582.441 187.925 625.851 161.185L558.221 219.655Z" fill="white"/>
<path d="M558.221 219.655C558.221 219.655 582.441 187.925 625.851 161.185" stroke="black" stroke-width="3" stroke-miterlimit="10" stroke-linecap="round" stroke-linejoin="round"/>
<path d="M574.461 222.165C574.461 222.165 590.111 198.615 617.021 179.095L574.461 222.165Z" fill="white"/>
<path d="M574.461 222.165C574.461 222.165 590.111 198.615 617.021 179.095" stroke="black" stroke-width="3" stroke-miterlimit="10" stroke-linecap="round" stroke-linejoin="round"/>
<path d="M831.17 136.865C831.17 136.865 874.57 140.225 917.98 180.605" stroke="black" stroke-width="3" stroke-miterlimit="10" stroke-linecap="round" stroke-linejoin="round"/>
<path d="M847.91 155.625C847.91 155.625 878.7 162.695 909.48 188.175" stroke="black" stroke-width="3" stroke-miterlimit="10" stroke-linecap="round" stroke-linejoin="round"/>
</svg>
