<?xml version="1.0" standalone="no"?>
<!DOCTYPE svg PUBLIC "-//W3C//DTD SVG 1.1//EN" "http://www.w3.org/Graphics/SVG/1.1/DTD/svg11.dtd" >
<svg xmlns="http://www.w3.org/2000/svg">
<metadata>Generated by IcoMoon</metadata>
<defs>
<font id="icomoon" horiz-adv-x="1024">
<font-face units-per-em="1024" ascent="960" descent="-64" />
<missing-glyph horiz-adv-x="1024" />
<glyph unicode="&#x20;" horiz-adv-x="512" d="" />
<glyph unicode="&#xe900;" glyph-name="translation" d="M996.318 74.359h-166.042v-110.677c0-0.005 0-0.011 0-0.017 0-15.273-12.376-27.655-27.647-27.665h-27.666c-15.288 0-27.682 12.394-27.682 27.682v0 110.677h-166.042c-15.281 0.010-27.665 12.4-27.665 27.682v0 193.69c0 15.282 12.384 27.672 27.664 27.682h166.043v110.694c0 15.279 12.386 27.665 27.665 27.665 0.006 0 0.012 0 0.018 0h27.664c0.005 0 0.011 0 0.017 0 15.27 0 27.648-12.378 27.648-27.648 0-0.006 0-0.012 0-0.018v0.001-110.694h166.042c15.281-0.010 27.665-12.4 27.665-27.682v0-193.707c-0.010-15.281-12.4-27.665-27.682-27.665v0zM664.269 240.384c-0.005 0-0.011 0-0.017 0-15.279 0-27.665-12.386-27.665-27.665 0 0 0 0 0 0v0-27.682c0.010-15.281 12.4-27.665 27.682-27.665h83.012v83.012zM940.937 212.719c0 0.005 0 0.011 0 0.017 0 15.27-12.378 27.648-27.648 27.648-0.006 0-0.012 0-0.018 0h-82.994v-83.012h83.029c15.257 0.029 27.614 12.404 27.614 27.665 0 0 0 0 0 0v0zM403.081 651.332l105.506-217.225h-209.51zM691.883 378.761h-64.853l-186.249 383.113c0 0.119-0.239 0.239-0.239 0.375-0.536 1.016-1.103 1.887-1.737 2.703l0.030-0.041c-4.487 8.835-11.846 15.669-20.825 19.375l-0.27 0.099c-0.239 0.119-0.375 0-0.631 0.119-4.306 1.689-9.293 2.668-14.509 2.668-0.227 0-0.454-0.002-0.681-0.006h0.034c-1.161 0-2.287-0.512-3.533-0.631-4.028-0.15-7.833-0.895-11.398-2.148l0.27 0.083c-0.495-0.119-0.734-0.631-1.263-0.768s-0.375-0.375-0.631-0.375c-9.722-4.393-17.241-12.228-21.118-21.914l-0.096-0.272c0-0.119-0.239-0.239-0.239-0.375l-211.678-442.163c-1.831-4.511-2.893-9.743-2.893-15.223 0-22.919 18.579-41.498 41.498-41.498 17.438 0 32.364 10.756 38.506 25.996l0.099 0.279 43.23 90.214h225.399v-332.066h-387.413c-0.005 0-0.011 0-0.017 0-61.125 0-110.677 49.552-110.677 110.677 0 0.006 0 0.012 0 0.018v-0.001 692.309c0 0.005 0 0.011 0 0.017 0 61.125 49.552 110.677 110.677 110.677 0.012 0 0.024 0 0.036 0h581.169c0.015 0 0.033 0 0.051 0 61.107 0 110.643-49.537 110.643-110.643 0-0.018 0-0.036 0-0.054v0.003-332.151h-110.694z" />
<glyph unicode="&#xe901;" glyph-name="love" horiz-adv-x="1101" d="M792.37 960c-99.204-1.489-186.658-50.488-240.8-125.202l-0.607-0.879c-54.669 75.686-142.172 124.725-241.195 126.079l-0.212 0.002c-171.107 0-309.556-152.236-309.556-338.547 3.655-95.54 36.814-182.68 90.557-253.306l-0.799 1.095c116.45-182.889 408.994-409.532 421.46-419.211 10.667-8.749 24.453-14.052 39.477-14.052s28.81 5.303 39.587 14.139l-0.11-0.087c12.515 9.778 304.472 236.861 421.46 419.211 52.763 69.61 85.881 156.698 89.729 251.329l0.029 0.883c0.587 186.311-138.596 338.547-309.019 338.547z" />
<glyph unicode="&#xe902;" glyph-name="scroll" horiz-adv-x="1093" d="M442.343 75.462c-12.991 0-23.522 10.531-23.522 23.522s10.531 23.522 23.522 23.522h349.024c12.991 0 23.522-10.531 23.522-23.522s-10.531-23.522-23.522-23.522v0zM442.343 215.071c-12.991 0-23.522 10.531-23.522 23.522s10.531 23.522 23.522 23.522h349.024c12.991 0 23.522-10.531 23.522-23.522s-10.531-23.522-23.522-23.522v0zM442.343 493.521c-12.991 0-23.522 10.531-23.522 23.522s10.531 23.522 23.522 23.522h349.024c12.991 0 23.522-10.531 23.522-23.522s-10.531-23.522-23.522-23.522v0zM442.343 354.666c-12.991 0-23.522 10.531-23.522 23.522s10.531 23.522 23.522 23.522h349.024c12.991 0 23.522-10.531 23.522-23.522s-10.531-23.522-23.522-23.522v0zM129.139-64c-77.244 8.045-129.139 73.606-129.139 162.976 0 90.124 73.013 163.194 163.115 163.287h104.716c6.289 0 11.388 5.098 11.388 11.388v0 558.127c0.093 70.778 57.444 128.129 128.213 128.222h523.545c89.722-0.487 162.267-73.332 162.267-163.122 0-78.235-55.075-143.606-128.569-159.457l-1.073-0.194c-5.209-1.091-9.070-5.627-9.11-11.073v-561.488c-0.093-70.778-57.444-128.129-128.213-128.222h-697.139zM407.441 912.956c-44.807-0.084-81.108-36.385-81.192-81.184v-732.795c-0.237-36.852-12.772-70.731-33.7-97.788l0.277 0.372c-1.491-1.907-2.39-4.339-2.39-6.981 0-6.272 5.070-11.359 11.335-11.388h524.5c44.807 0.084 81.108 36.385 81.192 81.184v558.135c0 6.289-5.098 11.388-11.388 11.388v0h-453.731c-12.991 0-23.522 10.531-23.522 23.522s10.531 23.522 23.522 23.522h104.707c4.813 0.003 8.928 2.991 10.592 7.214l0.027 0.077c14.922 20.247 25.969 44.313 31.508 70.415l0.215 1.209c0.144 0.68 0.227 1.462 0.227 2.263 0 6.26-5.051 11.34-11.3 11.387h-136.582c-12.991 0-23.522 10.531-23.522 23.522s10.531 23.522 23.522 23.522v0h136.519c6.253 0.047 11.304 5.127 11.304 11.387 0 0.801-0.083 1.583-0.24 2.337l0.013-0.074c-5.94 28.476-17.816 53.51-34.322 74.771l0.307-0.411c-2.103 2.71-5.36 4.437-9.020 4.437-0.032 0-0.063 0-0.094 0h0.005zM163.124 214.908c-1.296 0.052-2.817 0.081-4.345 0.081-64.117 0-116.095-51.977-116.095-116.095s51.977-116.095 116.095-116.095c1.528 0 3.049 0.030 4.563 0.088l-0.218-0.007h3.801c62.41 1.861 112.295 52.899 112.295 115.588 0 0.178 0 0.356-0.001 0.534v-0.028 104.855c0 6.289-5.098 11.388-11.388 11.388v0zM628.243 912.956c-0.019 0-0.041 0-0.064 0-6.289 0-11.388-5.098-11.388-11.388 0-1.773 0.405-3.452 1.129-4.949l-0.030 0.068c14.254-29.204 22.589-63.542 22.589-99.827s-8.334-70.623-23.192-101.204l0.604 1.378c-0.694-1.428-1.099-3.107-1.099-4.881 0-6.289 5.098-11.388 11.388-11.388 0.022 0 0.045 0 0.067 0h303.47c64.117 0 116.095 51.977 116.095 116.095s-51.977 116.095-116.095 116.095v0z" />
<glyph unicode="&#xe903;" glyph-name="audio" d="M975.4 643.8c-25.3 59.9-61.6 113.7-107.8 159.9s-100 82.4-159.9 107.8c-62 26.1-127.8 39.4-195.7 39.4s-133.7-13.3-195.8-39.5c-11.3-4.8-22.5-10-33.4-15.6-46.6-23.9-89.1-54.8-126.5-92.2-46.2-46.2-82.4-100-107.8-159.9-26.1-61.9-39.4-127.8-39.4-195.7s13.3-133.8 39.5-195.8c25.3-59.9 61.6-113.7 107.8-159.9s100-82.4 159.9-107.8c62-26.2 127.9-39.5 195.8-39.5s133.8 13.3 195.8 39.5c59.9 25.3 113.7 61.6 159.9 107.8s82.4 100 107.8 159.9c26.2 62 39.5 127.9 39.5 195.8-0.2 67.9-13.5 133.8-39.7 195.8zM411.5 224.7c0-30.8-24.3-55.8-54.8-55.8-30.3 0-54.8 25-54.8 55.8v117.6c0 30.8 24.3 55.8 54.8 55.8 30.3 0 54.8-25 54.8-55.8v-117.6zM718.9 224.7c0-30.8-24.3-55.8-54.8-55.8-30.3 0-54.8 25-54.8 55.8v117.6c0 30.8 24.3 55.8 54.8 55.8 30.3 0 54.8-25 54.8-55.8v-117.6zM805.8 285.8c0-15.4-12.4-28-27.7-28-15.4 0-27.7 12.6-27.7 28.2v125.3c0 137.1-105.9 249-238.7 254.7-132.8-5.7-238.7-117.5-238.7-254.7v-125.4c0-15.6-12.4-28.2-27.7-28.2-15.4 0-27.7 12.6-27.7 28v133c0 167.9 131 304.5 294.1 309-2.7 0.1-5.5 0.1-8.2 0.1h16.4c-2.7 0-5.5 0-8.2-0.1 163.2-4.4 294.2-141.1 294.2-309l-0.1-132.9z" />
<glyph unicode="&#xe904;" glyph-name="setting" d="M866.083 588.153c5.071-7.476 13.549-12.116 22.664-12.153h7.253c70.693 0 128-57.307 128-128s-57.307-128-128-128l-3.669 0.001c-11.325-0.047-21.044-6.874-25.311-16.629l-0.070-0.178c-4.76-10.792-2.563-22.906 5.034-30.676l2.543-2.544c23.194-23.168 37.541-55.188 37.541-90.558 0 0 0-0.001 0-0.001v0c0-33.973-13.505-66.552-37.507-90.527-23.168-23.194-55.189-37.541-90.561-37.541-35.363 0-67.376 14.34-90.542 37.523l-0.001 0.001-2.225 2.229c-8.105 7.928-20.219 10.124-31.010 5.365-10.16-4.355-16.764-14.327-16.808-25.21v-7.254c0-70.692-57.308-128-128-128s-128 57.308-128 128c-0.255 14.227-7.454 24.292-20.641 29.233-10.372 4.577-22.486 2.381-30.256-5.216l-2.544-2.543c-23.168-23.194-55.188-37.541-90.558-37.541 0 0-0.001 0-0.001 0v0c-33.972 0-66.552 13.505-90.527 37.507-23.193 23.168-37.54 55.189-37.54 90.559 0 35.363 14.34 67.376 37.523 90.542l2.23 2.227c7.928 8.104 10.124 20.218 5.364 31.010-4.354 10.16-14.327 16.764-25.21 16.808h-7.254c-70.692 0-128 57.307-128 128s57.308 128 128 128c14.227 0.255 24.292 7.454 29.233 20.641 4.577 10.372 2.381 22.486-5.216 30.256l-2.543 2.543c-23.193 23.169-37.54 55.189-37.541 90.56v0c0 33.972 13.506 66.551 37.507 90.527 23.168 23.193 55.188 37.54 90.559 37.54 0 0 0.001 0 0.001 0v0c0.002 0 0.005 0 0.007 0 35.361 0 67.372-14.34 90.536-37.523l2.226-2.23c4.996-4.89 11.842-7.907 19.393-7.907 4.053 0 7.903 0.869 11.373 2.431l-0.175-0.071c2.42 1.102 5.257 2.042 8.207 2.677l0.281 0.051c7.476 5.071 12.116 13.549 12.152 22.664v7.253c0 70.693 57.308 128 128 128s128-57.307 128-128v-3.669c0.044-11.054 6.648-21.027 17.228-25.563 10.372-4.578 22.486-2.382 30.256 5.216l2.544 2.543c23.168 23.193 55.188 37.541 90.559 37.541v0c33.972 0 66.551-13.506 90.527-37.507 23.193-23.168 37.541-55.189 37.541-90.56 0-35.363-14.341-67.377-37.524-90.543l-2.23-2.226c-4.89-4.996-7.907-11.842-7.907-19.393 0-4.053 0.869-7.903 2.431-11.373l-0.071 0.175c1.102-2.42 2.042-5.257 2.677-8.207l0.051-0.281zM389.538 718.014c-40.323-14.135-85.553-4.327-116.774 26.215l-2.576 2.577c-7.723 7.731-18.397 12.513-30.188 12.513v0c-11.806-0.003-22.492-4.798-30.218-12.546l-0.001-0.001c-7.732-7.722-12.515-18.396-12.515-30.187 0-11.799 4.79-22.479 12.531-30.202l0.001-0.001 2.891-2.895c32.322-33.042 41.276-82.43 23.624-122.216-16.026-43.573-57.059-72.922-104.472-74.019h-3.84c-23.563 0-42.666-19.103-42.666-42.667s19.103-42.667 42.666-42.667h7.424c45.065-0.18 85.72-27.104 103.291-68.106 18.662-42.286 9.708-91.674-22.945-125.050l-2.576-2.577c-7.731-7.723-12.513-18.396-12.513-30.186 0 0 0-0.001 0-0.001v0c0.003-11.807 4.798-22.493 12.546-30.219l0.001-0.001c7.723-7.731 18.396-12.514 30.186-12.514 11.799 0 22.479 4.789 30.203 12.53l0.001 0.001 2.895 2.891c33.042 32.321 82.43 41.275 122.216 23.624 43.573-16.026 72.922-57.059 74.019-104.472v-3.84c0-23.564 19.103-42.666 42.667-42.666s42.666 19.102 42.666 42.666l0.001 7.424c0.179 45.065 27.103 85.72 68.105 103.291 42.286 18.662 91.675 9.708 125.051-22.945l2.576-2.576c7.723-7.731 18.396-12.514 30.186-12.514v0c11.807 0.004 22.493 4.799 30.22 12.546l0.001 0.001c7.731 7.723 12.513 18.397 12.513 30.187v0c-0.002 11.798-4.791 22.478-12.53 30.202l-0.001 0.001-2.891 2.895c-32.322 33.041-41.276 82.43-22.613 124.716 17.57 41.002 58.226 67.926 103.46 68.106h3.84c23.565 0 42.667 19.102 42.667 42.666s-19.102 42.667-42.667 42.667h-7.423c-45.065 0.18-85.72 27.104-103.473 68.526-1.446 3.275-2.529 7.076-3.065 11.051l-0.024 0.22c-14.135 40.322-4.327 85.553 26.216 116.774l2.576 2.576c7.731 7.723 12.513 18.396 12.513 30.186v0c-0.003 11.807-4.798 22.493-12.546 30.219l-0.001 0.001c-7.723 7.731-18.396 12.514-30.187 12.514-11.799 0-22.479-4.789-30.202-12.53l-0.001-0.001-2.895-2.891c-33.042-32.322-82.43-41.276-124.296-22.796-41.422 17.752-68.346 58.408-68.526 103.643v3.84c0 23.564-19.103 42.667-42.667 42.667-23.563 0-42.666-19.103-42.666-42.667l-0.001-7.423c-0.179-45.065-27.103-85.72-68.525-103.473-3.275-1.445-7.076-2.529-11.050-3.065l-0.22-0.024zM512 277.334c-94.256 0-170.666 76.41-170.666 170.666s76.41 170.667 170.666 170.667c94.257 0 170.667-76.41 170.667-170.667 0-94.256-76.41-170.666-170.667-170.666zM512 362.667c47.129 0 85.334 38.205 85.334 85.333 0 47.129-38.205 85.334-85.334 85.334-47.128 0-85.333-38.205-85.333-85.334s38.205-85.333 85.333-85.333z" />
<glyph unicode="&#xe905;" glyph-name="scroll1" horiz-adv-x="957" d="M442.727 74.694c-12.998 0-23.535 10.537-23.535 23.535s10.537 23.535 23.535 23.535h349.326c12.998 0 23.535-10.537 23.535-23.535s-10.537-23.535-23.535-23.535v0zM442.727 214.425c-12.998 0-23.535 10.537-23.535 23.535s10.537 23.535 23.535 23.535h349.326c12.998 0 23.535-10.537 23.535-23.535s-10.537-23.535-23.535-23.535v0zM442.727 493.146c-12.998 0-23.535 10.537-23.535 23.535s10.537 23.535 23.535 23.535h349.326c12.998 0 23.535-10.537 23.535-23.535s-10.537-23.535-23.535-23.535v0zM442.727 354.156c-12.998 0-23.535 10.537-23.535 23.535s10.537 23.535 23.535 23.535h349.326c12.998 0 23.535-10.537 23.535-23.535s-10.537-23.535-23.535-23.535v0zM442.727 639.241c-12.998 0-23.535 10.537-23.535 23.535s10.537 23.535 23.535 23.535h349.326c12.998 0 23.535-10.537 23.535-23.535s-10.537-23.535-23.535-23.535v0zM442.727 783.561c-12.998 0-23.535 10.537-23.535 23.535s10.537 23.535 23.535 23.535h349.326c12.998 0 23.535-10.537 23.535-23.535s-10.537-23.535-23.535-23.535v0zM910.025 782.376v49.587c-0.084 44.794-36.332 81.095-81.099 81.263h-196.734v46.774h196.718c70.843-0.084 128.249-57.491 128.333-128.325v-49.299zM908.545 783.561v-719.968c-0.502-44.578-36.756-80.523-81.406-80.523-0.054 0-0.107 0-0.161 0h-524.87c0 0-0.001 0-0.001 0-6.295 0-11.398 5.103-11.398 11.398 0 2.631 0.891 5.054 2.389 6.983l-0.019-0.026c20.677 26.72 33.223 60.646 33.452 97.492v732.749c0.084 44.846 36.416 81.179 81.255 81.263h224.998v46.611l-224.99 0.459c-70.843-0.084-128.249-57.491-128.333-128.325v-558.634c0-6.295-5.103-11.398-11.398-11.398v0h-105.242c-89.924 0-162.822-72.898-162.822-162.822v0c0-88.812 51.955-155.125 129.221-162.822h697.765c70.843 0.084 128.249 57.491 128.333 128.325v562.483l1.776 157.789zM279.461 98.23c0.001-0.147 0.001-0.32 0.001-0.494 0-62.731-49.901-113.807-112.174-115.697l-0.174-0.004h-12.434c-62.746 1.828-112.915 53.13-112.915 116.149 0 64.173 52.022 116.195 116.195 116.195 1.709 0 3.41-0.037 5.101-0.11l-0.241 0.008h104.798c6.295 0 11.398-5.103 11.398-11.398v0z" />
<glyph unicode="&#xe906;" glyph-name="trash" horiz-adv-x="896" d="M864.032 896.013h-240.037l-18.802 37.4c-8.048 15.887-24.257 26.588-42.964 26.588-0.004 0-0.008 0-0.012 0h-228.613c-0.028 0-0.061 0-0.095 0-18.637 0-34.772-10.711-42.586-26.313l-0.125-0.275-18.802-37.4h-240.003c-17.67 0-31.994-14.324-31.994-31.994 0-0.012 0-0.024 0-0.036v0.002-63.987c0-17.67 14.324-31.994 31.994-31.994v0h832.038c17.67 0 31.994 14.324 31.994 31.994v0 63.987c0 0.010 0 0.022 0 0.034 0 17.67-14.324 31.994-31.994 31.994v0zM106.419 25.997c3.26-50.369 44.907-89.989 95.81-89.997h491.567c50.904 0.008 92.551 39.628 95.796 89.713l0.015 0.284 42.398 677.986h-768.017z" />
<glyph unicode="&#xe907;" glyph-name="edit" horiz-adv-x="1013" d="M1012.973 10.908c0-41.352-33.522-74.874-74.874-74.874v0h-502.13c-41.352 0-74.874 33.522-74.874 74.874s33.522 74.874 74.874 74.874h502.13c41.352 0 74.874-33.522 74.874-74.874v0zM1012.973 222.732c0-41.352-33.522-74.874-74.874-74.874v0h-284.997c-41.352 0-74.874 33.522-74.874 74.874s33.522 74.874 74.874 74.874h284.963c41.352 0 74.874-33.522 74.874-74.874v0zM714.329 598.7l-488.687-549.573-206.651-42.644c-1.107-0.286-2.378-0.45-3.687-0.45-8.458 0-15.315 6.857-15.315 15.315 0 1.038 0.103 2.053 0.3 3.033l-0.016-0.098 30.086 208.285 483.888 543.651c5.34 6.581 13.427 10.753 22.489 10.753 6.776 0 13.007-2.332 17.934-6.238l-0.060 0.046 159.719-141.92c5.082-5.203 8.216-12.326 8.216-20.182s-3.135-14.979-8.222-20.188l0.005 0.006zM855.092 757.024l-74.874-84.199c-3.041-3.378-7.428-5.492-12.309-5.492-4.201 0-8.036 1.566-10.953 4.146l0.018-0.015-175.715 156.078c-3.378 3.041-5.492 7.428-5.492 12.309 0 4.201 1.566 8.036 4.146 10.953l-0.015-0.018 75.044 84.403c13.58 15.261 33.274 24.826 55.202 24.826 18.974 0 36.275-7.162 49.348-18.93l-0.067 0.059 89.882-79.843c15.043-13.619 24.453-33.221 24.453-55.020 0-18.944-7.106-36.228-18.799-49.332l0.064 0.073z" />
<glyph unicode="&#xe908;" glyph-name="zoom-in" d="M948.14 75.76l-156 156.060c55.989 69.251 89.88 158.38 89.88 255.426 0 0.146 0 0.291 0 0.437v-0.023c0 0.018 0 0.039 0 0.060 0 226.459-183.581 410.040-410.040 410.040s-410.040-183.581-410.040-410.040c0-226.459 183.581-410.040 410.040-410.040 0.021 0 0.042 0 0.063 0h-0.003c0.147 0 0.321 0 0.495 0 97.347 0 186.724 34.128 256.817 91.072l-0.752-0.592 155.94-155.94c8.278-8.538 19.854-13.837 32.668-13.837 12.397 0 23.636 4.96 31.84 13.004l-0.007-0.007c7.954 8.199 12.858 19.396 12.858 31.739 0 12.791-5.266 24.352-13.749 32.633l-0.009 0.009zM152.060 487.6c0 176.72 143.26 319.98 319.98 319.98s319.98-143.26 319.98-319.98v0c0-176.737-143.273-320.010-320.010-320.010s-320.010 143.273-320.010 320.010v0zM620.3 527.080h-108.78v108.66c0 22.38-17.7 40.62-39.48 40.62s-39.48-18.24-39.48-40.62v-108.72h-108.72c-0.144 0.002-0.314 0.003-0.484 0.003-21.959 0-39.799-17.633-40.135-39.511v-0.032c0-21.84 18.24-39.42 40.62-39.42h108.72v-108.72c0-22.38 17.7-40.68 39.48-40.68s39.48 18.3 39.48 40.68v108.72h108.72c0.144-0.002 0.315-0.003 0.485-0.003 21.938 0 39.765 17.599 40.134 39.448v0.035c-0.303 21.903-18.13 39.543-40.076 39.543-0.17 0-0.34-0.001-0.509-0.003h0.026z" />
<glyph unicode="&#xe909;" glyph-name="save" d="M584.924 794.707c-23.028 0-41.451-13.817-41.451-30.705v-98.255c0.512-16.888 19.446-30.705 41.451-30.705 23.028 0 40.94 13.817 40.94 30.705v98.255c0 16.888-17.911 30.705-40.94 30.705zM884.294 949.765h-754.823c-71.132 0-129.471-58.339-129.471-129.471v-754.823c0-71.132 58.339-128.96 129.471-129.471h754.823c71.132 0 129.471 58.339 129.471 129.471v754.823c0 71.644-57.827 129.471-129.471 129.471zM293.741 479.472h426.283c44.010 0 80.344 35.822 80.344 80.344v307.558h83.926c25.587 0 46.569-20.982 46.569-46.569v-754.311c0-25.587-20.982-46.569-46.569-46.569h-754.823c-25.587 0-46.569 20.982-46.569 46.569v753.799c0 25.587 20.982 46.569 46.569 46.569h83.926v-307.558c0.512-44.010 36.334-79.832 80.344-79.832zM296.3 561.863v305h421.677v-305h-421.677z" />
<glyph unicode="&#xe90a;" glyph-name="zoom-out" d="M623.79 536.65c0 22.49-18.24 40.73-40.73 40.73h-278.86c-22.49 0-40.73-18.23-40.73-40.73 0-22.49 18.24-40.73 40.73-40.73h278.86c22.49 0 40.73 18.24 40.73 40.73zM928.74 69.55l-221.79 222.48c61.35 66.16 96.11 153.97 96.11 244.62 0 198.19-161.24 359.42-359.43 359.42s-359.42-161.23-359.42-359.42 161.23-359.42 359.42-359.42c72.49 0 142.24 21.6 201.31 61.63l226.11-226.81c7.95-7.98 18.4-11.97 28.85-11.97 10.4 0 20.8 3.96 28.76 11.88 15.92 15.88 15.96 41.67 0.080 57.59zM165.67 536.65c0 153.27 124.7 277.97 277.96 277.97 153.27 0 277.97-124.7 277.97-277.97 0-77.67-31.23-149.72-87.93-202.86-3.18-2.98-6.41-5.87-9.71-8.68-0.93-0.71-1.83-1.46-2.71-2.26-49.85-41.48-112.3-64.16-177.63-64.16-153.26-0.010-277.95 124.69-277.95 277.96z" />
<glyph unicode="&#xe90b;" glyph-name="home" horiz-adv-x="1092" d="M546.148 960l-546.148-477.852h136.537v-546.148h341.316v204.779h136.697v-204.779h341.316v546.148h136.43z" />
<glyph unicode="&#xe90c;" glyph-name="clockwise" horiz-adv-x="910" d="M793.171 389.664c0-168.478-156.012-336.965-338.061-336.965s-338.052 155.455-338.052 336.965 156.012 337.046 338.016 337.046v-116.69l286.084 168.478-286.084 181.502v-116.69c-250.547 0-453.655-203.108-453.655-453.655s203.108-453.655 453.655-453.655v0c253.588 0 455.11 168.478 455.11 453.655zM532.766 385.173c0-44.644-36.191-80.835-80.835-80.835s-80.835 36.191-80.835 80.835c0 44.644 36.191 80.835 80.835 80.835s80.835-36.191 80.835-80.835z" />
<glyph unicode="&#xe90d;" glyph-name="add" d="M512 960c28.277 0 51.2-22.923 51.2-51.2v-921.6c0-28.277-22.923-51.2-51.2-51.2s-51.2 22.923-51.2 51.2v921.6c0 28.277 22.923 51.2 51.2 51.2zM0 448c0 28.277 22.923 51.2 51.2 51.2h921.6c28.277 0 51.2-22.923 51.2-51.2s-22.923-51.2-51.2-51.2h-921.6c-28.277 0-51.2 22.923-51.2 51.2z" />
<glyph unicode="&#xe90e;" glyph-name="counterclockwise" horiz-adv-x="910" d="M117.058 389.664c0-168.478 156.012-336.965 338.061-336.965s338.052 155.455 338.052 336.965-156.012 337.046-338.097 337.046v-116.69l-286.048 168.478 286.048 181.502v-116.69c250.547 0 453.655-203.108 453.655-453.655s-203.108-453.655-453.655-453.655v0c-253.588 0-455.11 168.478-455.11 453.655zM532.766 385.173c0-44.644-36.191-80.835-80.835-80.835s-80.835 36.191-80.835 80.835c0 44.644 36.191 80.835 80.835 80.835s80.835-36.191 80.835-80.835z" />
<glyph unicode="&#xe90f;" glyph-name="github" horiz-adv-x="808" d="M369.983-41.741c-21.402-0.081-41.962 9.232-57.175 25.907s-23.838 39.349-23.987 63.051l-0.322 63.666c-159.51-38.422-193.157 74.93-193.157 74.93-26.090 73.372-63.676 92.871-63.676 92.871-52.017 39.446 3.94 38.643 3.94 38.643 57.525-4.452 87.835-65.444 87.835-65.444 51.133-97.059 134.145-69.007 166.826-52.806 5.146 41.052 20.020 69.055 36.421 84.949-127.351 16.028-261.215 70.521-261.215 313.791 0 69.32 22.391 125.952 59.093 170.429-5.949 16.028-25.567 80.584 5.547 168.025 0 0 48.159 17.052 157.702-65.090 46.778 14.096 95.033 21.281 143.512 21.37 48.68-0.223 97.763-7.257 143.589-21.37 109.466 82.141 157.545 65.090 157.545 65.090 31.194-87.485 11.577-152.042 5.627-168.025 36.74-44.433 59.009-101.109 59.009-170.43 0-243.888-134.144-297.584-261.775-313.299 20.543-19.72 38.872-58.325 38.872-117.582 0-84.992-0.28-119.673-0.28-119.673-0.151-23.692-8.763-46.355-23.956-63.035-15.195-16.675-35.734-26.015-57.126-25.966h-122.849z" />
<glyph unicode="&#xe910;" glyph-name="dropbox" horiz-adv-x="1100" d="M323.016 960l-323.016-213.115 223.348-178.686 326.452 202.808zM0 389.586l323.016-209.624 226.784 188.993-326.452 199.318zM549.8 368.973l226.802-189.011 322.998 209.624-223.348 178.686zM1099.601 746.885l-322.998 213.115-226.802-188.993 326.452-202.735zM549.819 327.728l-226.802-188.993-96.214 61.859v-68.73l323.016-195.864 326.452 195.864v68.73l-99.65-61.859z" />
<glyph unicode="&#xe911;" glyph-name="export" d="M111.232 886.848l-38.016-146.304h877.568l-38.016 146.304h-801.536zM1023.808 745.408c0.128-1.6 0.192-3.2 0.192-4.864v-731.392c0-40.256-38.4-73.152-85.376-73.152h-853.248c-46.976 0-85.376 32.896-85.376 73.152v731.328c0.003 6.553 0.867 12.902 2.485 18.943l-0.117-0.511 38.144 146.368c8.384 32.192 37.44 54.72 70.656 54.72h801.664c33.28 0 62.336-22.528 70.72-54.72l38.080-146.304c1.216-4.48 1.92-9.024 2.24-13.568h-0.064zM527.488 632.832l-307.968-308.032 237.44-2.048-0.256-233.28 143.424 1.664 5.248 228.48 232.448 2.944-310.272 310.272z" />
<glyph unicode="&#xe912;" glyph-name="lock" d="M512.254 896q48.81 0 94.062-18.304t80.334-50.336 56.437-74.741 21.355-91.519v-150.499h-123.043v122.026q0 64.064-36.099 99.654t-97.112 35.591q-54.912 0-88.469-35.591t-33.557-99.654v-124.060h-128.127v152.532q0 48.81 19.321 91.519t53.386 74.741 80.334 50.336 101.18 18.304zM894.22 266.487v-135.245q0-27.456-9.66-51.861t-26.439-41.692-39.658-27.456-50.336-10.169h-514.542q-27.456 0-49.827 9.66t-38.642 26.439-24.914 39.15-8.643 47.793v323.368q0 28.473 19.829 47.793t46.268 19.321h629.45q28.473 0 47.793-19.321t19.321-47.793v-179.988z" />
<glyph unicode="&#xe913;" glyph-name="unlock" d="M768.254 960q48.81 0 94.062-18.304t80.334-50.336 56.437-74.741 21.355-91.519v-150.499h-123.043v122.026q0 64.064-36.099 99.654t-97.112 35.591q-54.912 0-88.469-35.591t-33.557-99.654v-124.060h-128.127v152.532q0 48.81 19.321 91.519t53.386 74.741 80.334 50.336 101.18 18.304zM766.22 266.487v-135.245q0-27.456-9.66-51.861t-26.439-41.692-39.658-27.456-50.336-10.169h-514.542q-27.456 0-49.827 9.66t-38.642 26.439-24.914 39.15-8.643 47.793v323.368q0 28.473 19.829 47.793t46.268 19.321h629.45q28.473 0 47.793-19.321t19.321-47.793v-179.988z" />
<glyph unicode="&#xe914;" glyph-name="cover" d="M926.477-64h-828.954c-53.86 0-97.523 43.663-97.523 97.523v0 828.954c0 0.003 0 0.006 0 0.009 0 53.856 43.659 97.514 97.514 97.514 0.003 0 0.006 0 0.009 0h828.954c53.86 0 97.523-43.663 97.523-97.523v-828.954c-0.005-53.858-43.665-97.518-97.523-97.523v0zM928.647 815.633c-0.005 27.070-21.951 49.013-49.022 49.013h-735.258c-27.069 0-49.013-21.944-49.013-49.013v0-735.258c0-27.071 21.943-49.017 49.013-49.022h735.258c27.074 0 49.022 21.948 49.022 49.022v0 735.258zM801.749 161.627h-388.773c-0.637-0.030-1.383-0.048-2.134-0.048-26.36 0-47.729 21.369-47.729 47.729s21.369 47.729 47.729 47.729c0.751 0 1.497-0.017 2.239-0.052l-0.105 0.004h388.773c0.637 0.030 1.383 0.048 2.134 0.048 26.36 0 47.729-21.369 47.729-47.729s-21.369-47.729-47.729-47.729c-0.751 0-1.497 0.017-2.239 0.052l0.105-0.004zM801.749 404.61h-388.773c-0.665-0.033-1.445-0.052-2.229-0.052-26.36 0-47.729 21.369-47.729 47.729s21.369 47.729 47.729 47.729c0.784 0 1.563-0.019 2.338-0.056l-0.109 0.004h388.773c0.816 0.050 1.769 0.078 2.729 0.078 26.36 0 47.729-21.369 47.729-47.729s-21.369-47.729-47.729-47.729c-0.96 0-1.914 0.028-2.86 0.084l0.13-0.006zM801.749 647.593h-388.773c-0.637-0.030-1.383-0.048-2.134-0.048-26.36 0-47.729 21.369-47.729 47.729s21.369 47.729 47.729 47.729c0.751 0 1.497-0.017 2.239-0.052l-0.105 0.004h388.773c0.816 0.050 1.769 0.078 2.729 0.078 26.36 0 47.729-21.369 47.729-47.729s-21.369-47.729-47.729-47.729c-0.96 0-1.914 0.028-2.86 0.084l0.13-0.006zM238.644 161.627c-26.36 0-47.729 21.369-47.729 47.729s21.369 47.729 47.729 47.729c26.36 0 47.729-21.369 47.729-47.729v0c0-26.36-21.369-47.729-47.729-47.729v0zM238.644 404.61c-26.36 0-47.729 21.369-47.729 47.729s21.369 47.729 47.729 47.729c26.36 0 47.729-21.369 47.729-47.729v0c0-26.36-21.369-47.729-47.729-47.729v0zM238.644 647.593c-26.36 0-47.729 21.369-47.729 47.729s21.369 47.729 47.729 47.729c26.36 0 47.729-21.369 47.729-47.729v0c0-26.36-21.369-47.729-47.729-47.729v0z" />
<glyph unicode="&#xe915;" glyph-name="minus" d="M79.338 521.97c297.837 0.054 595.646 0.054 893.457 0 0-37.189 0-74.372 0-111.561-297.836-0.053-595.647-0.053-893.457 0 0 37.189 0 74.372 0 111.561z" />
<glyph unicode="&#xe916;" glyph-name="webdav" horiz-adv-x="2048" d="M1178.275 904.778c-2.111 8.273-3.322 17.771-3.322 27.552s1.211 19.279 3.492 28.352l-0.17-0.8h-292.651c5.896-11.398 9.353-24.88 9.353-39.17 0-5.634-0.537-11.143-1.564-16.478l0.087 0.544c0-23.658-252.948-968.808-252.948-968.808h197.638l55.309 204.724h268.964l47.257-204.724h268.905c8.081 0-300.351 945.208-300.351 968.808zM917.217 290.343l110.736 322.955 102.918-322.955zM1201.904 959.941h300.615l166.045-693.198s181.827 614.435 189.733 638.064c-3.404 21.091-11.805 39.776-23.951 55.408l0.205-0.274h213.566c-5.35-14.463-10.796-32.891-15.178-51.727l-0.662-3.378c0-15.782-253.123-779.866-253.123-779.866-11.036-27.428-19.374-59.333-23.549-92.534l-0.197-1.922c5.471-32.585 16.513-61.741 32.19-87.791l-0.627 1.123h-268.729v55.017c0 15.87-276.811 882.315-284.687 905.944-3.494 22.403-15.022 41.627-31.489 55.006l-0.162 0.128zM609.018 960h-371.853c2.191-9.463 3.447-20.33 3.447-31.49s-1.256-22.027-3.634-32.467l0.187 0.976c-7.906-31.651-150.264-669.54-205.544-898.097-4.972-24.487-16.11-45.826-31.721-63.032l0.098 0.11h411.117c261 0 498.195 330.861 498.195 685.146s-332.12 338.854-300.293 338.854zM411.117 85.649h-118.524l181.915 724.498h78.88c23.775 0 134.511-7.818 134.511-220.447s-158.081-504.051-276.781-504.051z" />
<glyph unicode="&#xe917;" glyph-name="sort-desc" d="M853.333 789.333v-512h128l-170.667-213.333-170.667 213.333h128v512h85.333zM512 192v-85.333h-384v85.333h384zM597.333 490.667v-85.333h-469.333v85.333h469.333zM597.333 789.333v-85.333h-469.333v85.333h469.333z" />
<glyph unicode="&#xe918;" glyph-name="sync" d="M118.857 456.914c1.143 49.943 11.429 98.4 30.743 144 19.771 46.857 48.114 88.8 84.229 125.029s78.171 64.571 125.029 84.343c48.457 20.457 99.886 30.857 153.029 30.857s104.571-10.4 152.914-30.857c48.581-20.822 90.044-49.282 124.897-84.325l0.018-0.018c11.314-11.314 21.943-23.314 31.771-35.886l-68.8-53.714c-2.168-1.688-3.549-4.299-3.549-7.232 0-4.281 2.942-7.874 6.914-8.869l0.063-0.013 200.8-49.143c5.714-1.371 11.314 2.971 11.314 8.8l0.914 206.743c0 7.657-8.8 12-14.743 7.2l-64.457-50.4c-87.886 112.457-224.571 184.571-378.171 184.571-261.829 0-474.857-209.829-479.771-470.629-0.002-0.068-0.003-0.148-0.003-0.229 0-5.049 4.093-9.143 9.143-9.143 0.001 0 0.002 0 0.003 0h68.571c5.029 0 9.029 4 9.143 8.914zM982.857 448h-68.571c-5.029 0-9.029-4-9.143-8.914-1.143-49.943-11.429-98.4-30.743-144-19.771-46.857-48.114-88.914-84.229-125.029-70.881-71.165-168.953-115.201-277.311-115.201-0.263 0-0.525 0-0.787 0.001h0.041c-0.217 0-0.474-0.001-0.732-0.001-108.326 0-206.367 44.037-277.197 115.186l-0.014 0.015c-11.314 11.314-21.943 23.314-31.771 35.886l68.8 53.714c2.168 1.688 3.549 4.299 3.549 7.232 0 4.281-2.942 7.874-6.914 8.869l-0.063 0.013-200.8 49.143c-5.714 1.371-11.314-2.971-11.314-8.8l-0.8-206.857c0-7.657 8.8-12 14.743-7.2l64.457 50.4c87.886-112.343 224.571-184.457 378.171-184.457 261.943 0 474.857 209.943 479.771 470.629 0.002 0.068 0.003 0.148 0.003 0.229 0 5.049-4.093 9.143-9.143 9.143-0.001 0-0.002 0-0.003 0v0z" />
<glyph unicode="&#xe919;" glyph-name="exit" horiz-adv-x="1167" d="M675.775 154.117h-221.144v589.613h221.183v-154.832h93.395v202.748c0 0.047 0 0.102 0 0.158 0 24.336-19.728 44.064-44.064 44.064-0.055 0-0.111 0-0.166 0h-270.348v92.137c0 0.044 0 0.096 0 0.148 0 17.584-14.255 31.839-31.839 31.839-4.471 0-8.728-0.922-12.589-2.586l0.207 0.079-374.797-168.315c-20.795-9.638-35.074-30.112-35.611-53.979l-0.001-0.069v-573.89c0.039-24.086 14.515-44.781 35.235-53.899l0.378-0.148 374.758-168.315c3.76-1.716 8.155-2.716 12.784-2.716 17.367 0 31.446 14.079 31.446 31.446 0 0.264-0.003 0.527-0.010 0.789l0.001-0.039v92.215h270.318c0.047 0 0.102 0 0.158 0 24.336 0 44.064 19.728 44.064 44.064 0 0.055 0 0.111 0 0.166v-0.009 203.967h-93.355zM1156.191 472.194l-223.62 181.837c-5.258 4.237-12.020 6.801-19.381 6.801-17.128 0-31.014-13.885-31.014-31.014 0-0.125 0.001-0.249 0.002-0.374v0.019-104.479h-339.106c-14.205-0.089-25.697-11.58-25.786-25.777v-103.23c0.089-14.205 11.58-25.697 25.777-25.786h339.114v-104.44c0.296-17.139 14.26-30.919 31.442-30.919 7.151 0 13.745 2.387 19.028 6.408l-0.077-0.056 223.62 183.055c6.81 5.804 11.101 14.39 11.101 23.978s-4.291 18.173-11.057 23.941l-0.044 0.037z" />
<glyph unicode="&#xe91a;" glyph-name="note" horiz-adv-x="851" d="M779.928 35.107h-762.675c-8.83-0.229-15.928-7.327-16.157-16.136v-66.813c0.229-8.83 7.327-15.928 16.136-16.157h763.792c8.83 0.229 15.928 7.327 16.157 16.136v65.746c0.001 0.059 0.001 0.129 0.001 0.198 0 9.404-7.624 17.028-17.028 17.028-0.079 0-0.159-0.001-0.238-0.002h0.012zM842.421 778.421c-41.488 72.746-99.933 131.534-170.159 172.251l-2.203 1.179c-8.979 5.156-19.742 8.197-31.214 8.197-17.718 0-33.742-7.253-45.265-18.951l-521.393-521.393c-4.152-3.987-7.181-9.115-8.583-14.879l-0.043-0.21-62.493-254.216c-0.557-2.304-0.876-4.949-0.876-7.669 0-9.16 3.622-17.474 9.513-23.588l-0.010 0.011c5.736-6.034 13.822-9.788 22.785-9.788 3.012 0 5.925 0.424 8.683 1.215l253.91 62.439c5.974 1.445 11.102 4.474 15.079 8.616l521.62 521.367c11.676 11.261 18.927 27.043 18.927 44.518 0 11.377-3.073 22.036-8.435 31.193l0.158-0.292zM151.765 205.333c-13.449 23.561-32.461 42.563-55.308 55.622l-0.722 0.38 28.099 112.032c58.596-34.456 105.997-82.198 139.065-139.278l0.982-1.837z" />
<glyph unicode="&#xe91b;" glyph-name="collect" horiz-adv-x="825" d="M152.076 960h520.573c0.52 0.006 1.133 0.010 1.748 0.010 63.116 0 117.197-38.683 139.828-93.633l0.367-1.006c0.638-1.597 1.009-3.448 1.009-5.386 0-8.092-6.457-14.675-14.5-14.879h-642.27c-22.4 0-40.559-18.159-40.559-40.559s18.159-40.559 40.559-40.559v0h652.24c0.361 0.037 0.78 0.059 1.204 0.059 6.829 0 12.365-5.536 12.365-12.365 0-0.424-0.021-0.843-0.063-1.256l0.004 0.052v-662.373c0.001-0.196 0.001-0.427 0.001-0.659 0-83.641-67.805-151.446-151.446-151.446-0.172 0-0.343 0-0.514 0.001h-520.547c-0.187-0.001-0.409-0.001-0.631-0.001-83.641 0-151.446 67.805-151.446 151.446 0 0.232 0.001 0.464 0.002 0.695v-0.036 719.82c-0.001 0.187-0.001 0.409-0.001 0.631 0 83.641 67.805 151.446 151.446 151.446 0.222 0 0.444 0 0.665-0.001h-0.034zM493.409 473.403l108.139-57.447c4.644-3.504 7.614-9.012 7.614-15.213s-2.97-11.709-7.566-15.179l-0.048-0.035-114.951-67.637-57.447-104.761c-2.554-6.001-8.401-10.133-15.213-10.133s-12.659 4.131-15.172 10.025l-0.041 0.108-67.58 114.894-104.761 57.447c-6.001 2.554-10.133 8.401-10.133 15.213s4.131 12.659 10.025 15.172l0.108 0.041 114.894 64.202 57.447 108.139c3.504 4.644 9.012 7.614 15.213 7.614s11.709-2.97 15.179-7.566l0.035-0.048z" />
<glyph unicode="&#xe91c;" glyph-name="share" d="M968.348 603.826c-28.939 0-51.2-22.261-51.2-51.2v-507.548h-812.522v507.548c0 28.939-22.261 51.2-51.2 51.2s-51.2-22.261-51.2-51.2v-558.748c0-28.939 22.261-51.2 51.2-51.2h914.922c28.939 0 51.2 22.261 51.2 51.2v558.748c0 28.939-22.261 51.2-51.2 51.2zM313.878 655.026c13.357 0 26.713 4.452 35.617 15.583l111.304 111.304v-318.33c0-28.939 22.261-51.2 51.2-51.2s51.2 22.261 51.2 51.2v316.104l111.304-111.304c8.904-8.904 22.261-15.583 35.617-15.583s26.713 4.452 35.617 15.583c20.035 20.035 20.035 51.2 0 71.235l-198.122 198.122c-8.904 8.904-22.261 15.583-35.617 15.583s-26.713-4.452-35.617-15.583l-195.896-195.896c-20.035-20.035-20.035-51.2 0-71.235 8.904-11.13 22.261-15.583 33.391-15.583z" />
<glyph unicode="&#xe91d;" glyph-name="copy-line" d="M878.272-21.312h-502.912c-57.791 0-104.64 46.849-104.64 104.64v0 501.312c0 57.792 46.848 104.64 104.64 104.64h502.912c57.792 0 104.64-46.848 104.64-104.64v-502.912c-1.6-56.192-48.448-103.040-104.64-103.040zM375.36 595.648c-0.078 0.002-0.169 0.003-0.261 0.003-5.903 0-10.688-4.785-10.688-10.688 0-0.114 0.002-0.227 0.005-0.34v0.016-502.912c0-6.208 4.672-10.88 10.88-10.88h502.976c6.208 0 10.88 4.672 10.88 10.88v502.912c0.002 0.077 0.003 0.167 0.003 0.258 0 5.903-4.785 10.688-10.688 10.688-0.069 0-0.137-0.001-0.205-0.002h-502.902zM192.64 206.72h-45.312c-57.791 0-104.64 46.849-104.64 104.64v0 501.312c0 57.792 46.848 104.64 104.64 104.64h502.912c57.792 0 104.64-46.848 104.64-104.64v-49.92c0.006-0.269 0.009-0.586 0.009-0.904 0-25.414-20.602-46.016-46.016-46.016-0.296 0-0.591 0.003-0.885 0.008l0.044-0.001c-0.23-0.004-0.502-0.007-0.775-0.007-25.449 0-46.080 20.631-46.080 46.080 0 0.272 0.002 0.544 0.007 0.815l-0.001-0.041v49.984c0.002 0.077 0.003 0.168 0.003 0.259 0 5.903-4.785 10.688-10.688 10.688-0.091 0-0.182-0.001-0.273-0.003h-502.899c-0.077 0.002-0.167 0.003-0.258 0.003-5.903 0-10.688-4.785-10.688-10.688 0-0.069 0.001-0.137 0.002-0.205v0.010-502.976c0-6.208 4.672-10.88 10.88-10.88h45.312c0.231 0.004 0.503 0.007 0.776 0.007 25.449 0 46.080-20.631 46.080-46.080 0-0.295-0.003-0.589-0.008-0.882l0.001 0.044c0-26.496-21.824-45.248-46.848-45.248z" />
<glyph unicode="&#xe91e;" glyph-name="success" d="M512.022 960c-0.013 0-0.028 0-0.044 0-282.782 0-512.022-229.24-512.022-512.022s229.24-512.022 512.022-512.022c282.782 0 512.022 229.24 512.022 512.022v0c0.003 0.635 0.004 1.386 0.004 2.138 0 281.604-228.285 509.889-509.889 509.889-0.736 0-1.472-0.002-2.208-0.005h0.113zM779.287 578.846l-312.803-341.536c-10.034-10.52-24.16-17.060-39.813-17.060s-29.779 6.541-39.793 17.039l-0.021 0.022-142.231 153.593c-10.098 10.217-16.335 24.268-16.335 39.776 0 31.257 25.339 56.596 56.596 56.596 18.33 0 34.626-8.714 44.969-22.226l0.1-0.136 96.692-107.968 273.055 296.042c11.030 11.033 26.27 17.858 43.104 17.858 13.769 0 26.472-4.566 36.677-12.266l-0.154 0.112c10.598-10.030 17.193-24.196 17.193-39.902 0-15.727-6.613-29.909-17.21-39.918l-0.026-0.025z" />
<glyph unicode="&#xe91f;" glyph-name="popup" horiz-adv-x="2560" d="M1280-64l-1280 1024h2560z" />
<glyph unicode="&#xe920;" glyph-name="folder" horiz-adv-x="1070" d="M531.559 778.984c9.738-32.182 39.13-55.209 73.901-55.209 0.537 0 1.073 0.005 1.608 0.016l-0.080-0.001h320.6c-0.081 43.463-35.333 78.665-78.807 78.665-0.050 0-0.1 0-0.15 0h-324.113zM499.731 881.121h348.873c0.095 0 0.208 0 0.32 0 86.948 0 157.453-70.405 157.615-157.315v-31.702c38.16-29.193 62.768-74.438 63.656-125.465l0.002-0.143v-472.987c-0.182-86.93-70.695-157.331-157.65-157.331-0.1 0-0.2 0-0.3 0h-754.311c-0.085 0-0.185 0-0.285 0-86.956 0-157.468 70.4-157.65 157.313v709.178c0.182 86.93 70.695 157.331 157.65 157.331 0.1 0 0.2 0 0.3 0h203.867c58.259-0.751 109.093-31.84 137.507-78.166l0.407-0.713zM360.644 881.121h-203.918c-0.042 0-0.092 0-0.142 0-43.474 0-78.726-35.202-78.807-78.658v-709.169c0.081-43.463 35.333-78.665 78.807-78.665 0.050 0 0.1 0 0.15 0h751.971c0.042 0 0.092 0 0.142 0 43.474 0 78.726 35.202 78.807 78.658v472.995c-0.081 43.463-35.333 78.665-78.807 78.665-0.050 0-0.1 0-0.15 0h-299.361c-70.261 0.020-129.828 45.782-150.541 109.125l-0.317 1.12-23.578 70.45c-8.025 32.135-36.641 55.564-70.728 55.564-1.241 0-2.474-0.031-3.7-0.092l0.172 0.007zM236.885 210.724h317.044c22.047 0 39.919-17.873 39.919-39.919s-17.873-39.919-39.919-39.919v0h-317.044c-22.005 0.198-39.801 17.944-40.079 39.911v0.026c-0.001 0.075-0.001 0.163-0.001 0.251 0 21.9 17.753 39.653 39.653 39.653 0.15 0 0.3-0.001 0.45-0.003h-0.023z" />
<glyph unicode="&#xe921;" glyph-name="close" d="M902.741 143.787l-306.005 307.2 297.984 303.957c18.859 18.859 18.859 49.323 0 68.181s-36.010 18.859-54.87 0l-307.454-307.541-306.348 307.541c-18.859 18.859-49.323 18.859-68.181 0s-18.859-49.322 0-68.181l306.943-306.944-306.858-306.944c-18.859-18.859-18.859-49.323 0-68.181s49.323-18.859 68.181 0l303.787 309.93 309.93-309.93c18.86-18.859 44.033-16.128 62.806 2.645s18.944 49.408 0.085 68.267z" />
<glyph unicode="&#xe922;" glyph-name="check" d="M384 149.333c-0.002 0-0.004 0-0.006 0-11.778 0-22.44 4.773-30.159 12.491l-256 256.011c-8.060 7.773-13.066 18.666-13.066 30.729 0 23.564 19.103 42.667 42.667 42.667 11.543 0 22.015-4.584 29.696-12.030l-0.011 0.011c0.363-0.341 0.704-0.693 1.056-1.045l225.824-225.835 481.835 481.835c7.748 7.889 18.527 12.777 30.448 12.777 23.564 0 42.667-19.103 42.667-42.667 0-11.589-4.621-22.1-12.121-29.789l-512.663-512.663c-7.719-7.717-18.382-12.491-30.159-12.491-0.002 0-0.004 0-0.006 0v0z" />
<glyph unicode="&#xe923;" glyph-name="message" d="M512.022 960c-0.013 0-0.028 0-0.044 0-282.782 0-512.022-229.24-512.022-512.022s229.24-512.022 512.022-512.022c282.782 0 512.022 229.24 512.022 512.022v0c0.003 0.635 0.004 1.386 0.004 2.138 0 281.604-228.285 509.889-509.889 509.889-0.736 0-1.472-0.002-2.208-0.005h0.113zM779.287 578.846l-312.803-341.536c-10.034-10.52-24.16-17.060-39.813-17.060s-29.779 6.541-39.793 17.039l-0.021 0.022-142.231 153.593c-10.098 10.217-16.335 24.268-16.335 39.776 0 31.257 25.339 56.596 56.596 56.596 18.33 0 34.626-8.714 44.969-22.226l0.1-0.136 96.692-107.968 273.055 296.042c11.030 11.033 26.27 17.858 43.104 17.858 13.769 0 26.472-4.566 36.677-12.266l-0.154 0.112c10.598-10.030 17.193-24.196 17.193-39.902 0-15.727-6.613-29.909-17.21-39.918l-0.026-0.025z" />
<glyph unicode="&#xe924;" glyph-name="menu" d="M92 868h840c33.104 0 60-26.864 60-60s-26.896-60-60-60h-840c-33.136 0-60 26.864-60 60s26.864 60 60 60zM92 508h840c33.104 0 60-26.864 60-60 0-33.104-26.896-60-60-60h-840c-33.136 0-60 26.896-60 60 0 33.136 26.864 60 60 60zM92 148h840c33.104 0 60-26.896 60-60s-26.896-60-60-60h-840c-33.136 0-60 26.896-60 60s26.864 60 60 60z" />
<glyph unicode="&#xe925;" glyph-name="two-page" horiz-adv-x="1268" d="M633.905-64h-609.524c-13.465 0-24.381 10.916-24.381 24.381v0 975.238c0 13.465 10.916 24.381 24.381 24.381v0h609.524c13.465 0 24.381-10.916 24.381-24.381v0-975.238c0-13.465-10.916-24.381-24.381-24.381v0zM48.762-15.238h560.762v926.476h-560.762zM518.095 751.543h-280.381c-13.465 0-24.381 10.916-24.381 24.381s10.916 24.381 24.381 24.381v0h280.381c13.465 0 24.381-10.916 24.381-24.381s-10.916-24.381-24.381-24.381v0zM517.364 617.326h-364.983c-13.465 0-24.381 10.916-24.381 24.381s10.916 24.381 24.381 24.381v0h364.983c13.465 0 24.381-10.916 24.381-24.381s-10.916-24.381-24.381-24.381v0zM517.364 483.23h-364.983c-13.465 0-24.381 10.916-24.381 24.381s10.916 24.381 24.381 24.381v0h364.983c13.465 0 24.381-10.916 24.381-24.381s-10.916-24.381-24.381-24.381v0zM517.364 349.135h-364.983c-13.465 0-24.381 10.916-24.381 24.381s10.916 24.381 24.381 24.381v0h364.983c13.465 0 24.381-10.916 24.381-24.381s-10.916-24.381-24.381-24.381v0zM517.364 215.040h-364.983c-13.465 0-24.381 10.916-24.381 24.381s10.916 24.381 24.381 24.381v0h364.983c13.465 0 24.381-10.916 24.381-24.381s-10.916-24.381-24.381-24.381v0zM517.364 80.945h-364.983c-13.465 0-24.381 10.916-24.381 24.381s10.916 24.381 24.381 24.381v0h364.983c13.465 0 24.381-10.916 24.381-24.381s-10.916-24.381-24.381-24.381v0zM1243.429-64h-609.524c-13.465 0-24.381 10.916-24.381 24.381v0 975.238c0 13.465 10.916 24.381 24.381 24.381v0h609.524c13.465 0 24.381-10.916 24.381-24.381v0-975.238c0-13.465-10.916-24.381-24.381-24.381v0zM658.286-15.238h560.762v926.476h-560.762zM1115.429 751.543h-280.381c-13.465 0-24.381 10.916-24.381 24.381s10.916 24.381 24.381 24.381v0h280.381c13.465 0 24.381-10.916 24.381-24.381s-10.916-24.381-24.381-24.381v0zM1114.697 617.326h-364.983c-13.465 0-24.381 10.916-24.381 24.381s10.916 24.381 24.381 24.381v0h364.983c13.465 0 24.381-10.916 24.381-24.381s-10.916-24.381-24.381-24.381v0zM1114.697 483.23h-364.983c-13.465 0-24.381 10.916-24.381 24.381s10.916 24.381 24.381 24.381v0h364.983c13.465 0 24.381-10.916 24.381-24.381s-10.916-24.381-24.381-24.381v0zM1114.697 349.135h-364.983c-13.465 0-24.381 10.916-24.381 24.381s10.916 24.381 24.381 24.381v0h364.983c13.465 0 24.381-10.916 24.381-24.381s-10.916-24.381-24.381-24.381v0zM1114.697 215.040h-364.983c-13.465 0-24.381 10.916-24.381 24.381s10.916 24.381 24.381 24.381v0h364.983c13.465 0 24.381-10.916 24.381-24.381s-10.916-24.381-24.381-24.381v0zM1114.697 80.945h-364.983c-13.465 0-24.381 10.916-24.381 24.381s10.916 24.381 24.381 24.381v0h364.983c13.465 0 24.381-10.916 24.381-24.381s-10.916-24.381-24.381-24.381v0z" />
<glyph unicode="&#xe926;" glyph-name="single-page" horiz-adv-x="939" d="M914.286-64h-889.905c-13.465 0-24.381 10.916-24.381 24.381v0 975.238c0 13.465 10.916 24.381 24.381 24.381v0h889.905c13.465 0 24.381-10.916 24.381-24.381v0-975.238c0-13.465-10.916-24.381-24.381-24.381v0zM48.762-15.238h841.143v926.476h-841.143zM719.238 727.040h-329.143c-13.465 0-24.381 10.916-24.381 24.381s10.916 24.381 24.381 24.381v0h329.143c13.465 0 24.381-10.916 24.381-24.381s-10.916-24.381-24.381-24.381v0zM721.554 556.373h-532.602c-13.465 0-24.381 10.916-24.381 24.381s10.916 24.381 24.381 24.381v0h532.602c13.465 0 24.381-10.916 24.381-24.381s-10.916-24.381-24.381-24.381v0zM721.554 410.088h-532.602c-13.465 0-24.381 10.916-24.381 24.381s10.916 24.381 24.381 24.381v0h532.602c13.465 0 24.381-10.916 24.381-24.381s-10.916-24.381-24.381-24.381v0zM721.554 263.802h-532.602c-13.465 0-24.381 10.916-24.381 24.381s10.916 24.381 24.381 24.381v0h532.602c13.465 0 24.381-10.916 24.381-24.381s-10.916-24.381-24.381-24.381v0zM721.554 117.516h-532.602c-13.465 0-24.381 10.916-24.381 24.381s10.916 24.381 24.381 24.381v0h532.602c13.465 0 24.381-10.916 24.381-24.381s-10.916-24.381-24.381-24.381v0z" />
<glyph unicode="&#xe927;" glyph-name="digest" d="M213.333 704v-213.333h-64c-11.782 0-21.333-9.551-21.333-21.333v0-42.667c0-11.782 9.551-21.333 21.333-21.333h64v-213.333h-64c-11.782 0-21.333-9.551-21.333-21.333v0-42.667c0-11.782 9.551-21.333 21.333-21.333v0h64c0-47.128 38.205-85.333 85.333-85.333h512c47.128 0 85.333 38.205 85.333 85.333v682.667c0 47.128-38.205 85.333-85.333 85.333v0h-512c-47.128 0-85.333-38.205-85.333-85.333v0h-64c-11.782 0-21.333-9.551-21.333-21.333v-42.667c0-11.782 9.551-21.333 21.333-21.333v0zM554.667 768c0 11.782 9.551 21.333 21.333 21.333v0h213.333c11.782 0 21.333-9.551 21.333-21.333v-298.667c0.001-0.073 0.001-0.16 0.001-0.246 0-11.782-9.551-21.333-21.333-21.333-4.459 0-8.598 1.368-12.021 3.707l0.073-0.047-82.773 55.467c-3.38 2.189-7.511 3.491-11.947 3.491s-8.567-1.302-12.034-3.544l0.087 0.053-82.773-55.467c-3.35-2.292-7.489-3.66-11.948-3.66-11.782 0-21.333 9.551-21.333 21.333 0 0.087 0.001 0.173 0.002 0.26v-0.013z" />
<glyph unicode="&#xe928;" glyph-name="google" d="M522.24 521.173v-175.573h290.389c-11.733-75.307-87.723-220.757-290.389-220.757-174.72 0-317.397 144.597-317.397 323.157s142.72 323.157 317.397 323.157c99.413 0 166.016-42.197 204.16-78.891l138.837 133.888c-89.173 83.243-204.8 133.845-342.997 133.845-283.093 0-512-228.907-512-512s228.907-512 512-512c295.509 0 491.52 207.744 491.52 500.309 0 33.621-3.627 59.307-8.064 84.864h-483.456z" />
<glyph unicode="&#xe929;" glyph-name="speaker" d="M627.371 813.141c8.149-9.643 12.629-21.845 12.629-34.475v-661.419c0-0.003 0-0.007 0-0.011 0-29.455-23.878-53.333-53.333-53.333-13.18 0-25.243 4.781-34.55 12.703l0.075-0.063-211.925 179.456h-158.933c-53.019 0-96 42.981-96 96v0 192c0 53.019 42.981 96 96 96h158.933l211.968 179.371c9.225 7.836 21.271 12.602 34.43 12.602 16.282 0 30.861-7.297 40.643-18.798l0.063-0.076zM729.771 591.36c4.739 2.927 10.483 4.662 16.632 4.662 11.508 0 21.596-6.074 27.235-15.191l0.079-0.137c24.491-40.107 36.779-84.992 36.779-133.973 0-49.024-12.288-93.909-36.779-134.016-5.626-9.675-15.944-16.076-27.757-16.076-17.673 0-32 14.327-32 32 0 6.468 1.919 12.487 5.218 17.52l-0.075-0.122c18.261 29.952 27.392 63.275 27.392 100.693 0 37.376-9.131 70.699-27.392 100.651-2.927 4.739-4.662 10.483-4.662 16.632 0 11.508 6.074 21.596 15.191 27.235l0.137 0.079z" />
<glyph unicode="&#xe92a;" glyph-name="local" horiz-adv-x="1247" d="M55.732 960h1137.19c29.901-0.369 53.998-24.694 53.998-54.647 0-0.381-0.004-0.762-0.012-1.141l0.001 0.057v-679.177c-0.171-29.74-24.245-53.8-53.973-53.95h-395.335l29.601-177.626h90.605c31.346 0 29.601-57.477 0-57.477h-588.667c-29.601 0-29.601 57.477 0 57.477h90.567l29.601 177.626h-393.576c-0.323-0.007-0.704-0.011-1.085-0.011-29.94 0-54.257 24.076-54.647 53.924v679.214c-0.003 0.221-0.005 0.483-0.005 0.745 0 30.372 24.621 54.993 54.993 54.993 0.262 0 0.523-0.002 0.784-0.005h-0.040z" />
<glyph unicode="&#xe92b;" glyph-name="backup" d="M809.6 694.4c-48 121.6-166.4 201.6-297.6 201.6s-249.6-80-297.6-201.6c-108.8-32-182.4-131.2-182.4-246.4v-32c0-124.8 99.2-192 224-192h73.6c-9.6 16-6.4 35.2 6.4 51.2l144 144c3.2 3.2 9.6 6.4 12.8 9.6 9.6 3.2 22.4 3.2 32 0 6.4-3.2 9.6-6.4 12.8-9.6l144-144c12.8-12.8 16-35.2 6.4-51.2h80c124.8 0 224 67.2 224 192v32c0 115.2-73.6 214.4-182.4 246.4zM534.4 406.4c-3.2 3.2-6.4 6.4-9.6 6.4-6.4 3.2-16 3.2-25.6 0-3.2-3.2-6.4-3.2-9.6-6.4l-134.4-134.4c-12.8-12.8-12.8-32 0-44.8s32-12.8 44.8 0l80 80v-275.2c0-19.2 12.8-32 32-32s32 12.8 32 32v275.2l80-80c12.8-12.8 32-12.8 44.8 0s12.8 32 0 44.8l-134.4 134.4z" />
<glyph unicode="&#xe92c;" glyph-name="restore" d="M809.6 694.4c-48 121.6-166.4 201.6-297.6 201.6s-249.6-80-297.6-201.6c-108.8-32-182.4-131.2-182.4-246.4v-32c0-124.8 99.2-224 224-224h204.8v108.8c0 28.8 22.4 51.2 51.2 51.2s51.2-22.4 51.2-51.2v-108.8h204.8c124.8 0 224 99.2 224 224v32c0 115.2-73.6 214.4-182.4 246.4zM592 156.8l-48-48v179.2c0 19.2-12.8 32-32 32s-32-12.8-32-32v-179.2l-48 48c-12.8 12.8-32 12.8-44.8 0s-12.8-32 0-44.8l102.4-102.4c3.2-3.2 6.4-6.4 9.6-6.4s6.4-3.2 12.8-3.2c3.2 0 9.6 0 12.8 3.2s6.4 3.2 9.6 6.4l102.4 102.4c12.8 12.8 12.8 32 0 44.8-9.6 12.8-32 12.8-44.8 0z" />
<glyph unicode="&#xe92d;" glyph-name="english" d="M716.8 883.2c127.488 0 230.4-102.912 230.4-230.4v-409.6c0-127.488-102.912-230.4-230.4-230.4h-409.6c-127.488 0-230.4 102.912-230.4 230.4v409.6c0 127.488 102.912 230.4 230.4 230.4h409.6zM716.8 960h-409.6c-169.472 0-307.2-137.728-307.2-307.2v-409.6c0-169.472 137.728-307.2 307.2-307.2h409.6c169.472 0 307.2 137.728 307.2 307.2v409.6c0 169.472-137.728 307.2-307.2 307.2zM393.728 599.552h-189.44c-20.992 0-37.888 16.896-37.888 37.888s16.896 37.888 37.888 37.888h189.44c20.992 0 37.888-16.896 37.888-37.888 0-20.48-17.408-37.888-37.888-37.888zM346.112 410.112h-142.336c-20.992 0-37.888 16.896-37.888 37.888s16.896 37.888 37.888 37.888h142.336c20.992 0 37.888-16.896 37.888-37.888s-16.896-37.888-37.888-37.888zM393.728 220.672h-189.44c-20.992 0-37.888 16.896-37.888 37.888s16.896 37.888 37.888 37.888h189.44c20.992 0 37.888-16.896 37.888-37.888s-17.408-37.888-37.888-37.888zM203.776 220.672c-20.992 0-37.888 16.896-37.888 37.888v378.88c0 20.992 16.896 37.888 37.888 37.888s37.888-16.896 37.888-37.888v-378.88c0-20.992-16.896-37.888-37.888-37.888zM820.224 220.672c-11.264 0-22.528 5.632-30.208 15.36l-216.576 287.744v-265.216c0-20.992-16.896-37.888-37.888-37.888s-37.888 16.896-37.888 37.888v378.88c0 15.872 10.24 31.232 25.6 35.84s32.256 0 42.496-13.312l216.064-288.256v265.728c0 20.992 16.896 37.888 37.888 37.888s37.888-16.896 37.888-37.888v-378.88c0-15.872-10.24-31.232-25.6-35.84-4.096-1.536-8.192-2.048-11.776-2.048z" />
<glyph unicode="&#xe92e;" glyph-name="simplified" d="M716.8 883.2c127.246 0 230.4-103.154 230.4-230.4v0-409.6c0-127.246-103.154-230.4-230.4-230.4v0h-409.6c-127.246 0-230.4 103.154-230.4 230.4v0 409.6c0 127.246 103.154 230.4 230.4 230.4v0h409.6zM716.8 960h-409.6c-169.662 0-307.2-137.538-307.2-307.2v0-409.6c0-169.662 137.538-307.2 307.2-307.2v0h409.6c169.662 0 307.2 137.538 307.2 307.2v0 409.6c0 169.662-137.538 307.2-307.2 307.2v0zM335.616 637.952c-15.292-25.876-31.273-48.216-48.967-69.056l0.583 0.704-54.272 35.072c33.523 35.663 60.094 78.298 77.268 125.449l0.812 2.551 61.44-13.568-9.728-25.6h149.248v-55.808h-76.8c10.588-14.096 20.387-30.042 28.656-46.874l0.784-1.766-56.32-21.504c-12.794 27.215-25.931 50.207-40.637 72.056l1.213-1.912zM273.664 494.592h63.744v-332.8h-63.744zM352.768 592.384c26.74-23.575 50.877-48.686 72.822-75.65l0.906-1.15-47.104-32.512c-23.030 29.444-46.666 55.677-71.984 80.184l-0.208 0.2zM397.824 470.016h235.264v-241.92h-235.264zM458.496 375.552h114.944v43.008h-114.944zM573.44 280.832v44.288h-114.944v-44.288zM636.672 166.4l-15.36 57.856 54.016-2.048c12.8 0 19.2 8.96 19.2 25.6v261.12h-223.744v58.368h286.976v-336.896c0-43.264-23.296-65.024-70.144-65.024zM597.504 637.952c-12.354-22.958-24.825-42.461-38.566-60.964l0.934 1.316-54.016 35.072c27.848 33.734 49.528 73.717 62.616 117.412l0.616 2.396 60.928-13.568c-4.096-11.52-6.912-20.224-8.704-25.6h169.728v-55.808h-88.064c9.366-12.631 18.37-26.955 26.263-41.955l0.873-1.821-56.576-21.504c-12.326 25.394-24.763 46.776-38.573 67.153l1.197-1.873z" />
<glyph unicode="&#xe92f;" glyph-name="search-book" horiz-adv-x="1025" d="M747.746 768.716q-10.229 0-17.901 7.672t-12.786 17.901-7.672 20.97-2.557 17.901v125.818h2.046q8.183 0 16.878-2.046t20.458-9.718 28.641-21.481 42.451-36.313q27.619-24.55 43.474-41.428t24.55-28.641 10.741-19.947 2.046-14.321v-16.367h-150.368zM511.454 191.795q0-58.306 23.527-108.428t64.443-85.924h-337.56q-19.435 0-42.451 11.252t-42.962 29.664-33.245 42.451-13.298 49.611v696.601q0 21.481 10.229 45.008t27.107 42.451 38.359 31.71 45.008 12.786h390.751v-127.864q0-19.435 6.137-41.939t19.435-41.428 33.756-31.71 48.077-12.786h149.345v-284.369q-27.619 16.367-59.84 25.061t-67.001 8.695q-73.649 0-133.49-36.313t-93.596-96.665h-221.971q-26.596 0-45.519-18.924t-18.924-45.519 18.924-45.008 45.519-18.412h189.238zM322.216 575.386q-26.596 0-45.519-18.412t-18.924-45.008 18.924-45.519 45.519-18.924h383.591q26.596 0 45.519 18.924t18.924 45.519-18.924 45.008-45.519 18.412h-383.591zM1008.588 2.557q14.321-17.389 15.855-29.153t-9.718-24.038q-12.275-14.321-26.596-13.298t-28.641 12.275l-86.947 83.879q-27.619-17.389-59.84-25.061t-63.932-5.115-61.886 15.855-54.726 38.871q-27.619 27.619-41.939 63.42t-14.321 72.627 14.321 72.115 41.939 63.932q27.619 27.619 62.397 41.939t71.604 14.321 72.115-14.321 62.909-41.939q24.55-25.573 37.848-56.26t15.855-62.909-5.115-63.932-25.061-59.329zM767.182 65.978q25.573 0 48.077 10.229t39.382 27.107 26.596 39.893 9.718 49.611q0 25.573-9.718 48.588t-26.596 40.405-39.382 27.107-48.077 9.718q-26.596 0-49.1-9.718t-39.382-27.107-26.596-40.405-9.718-48.588q0-26.596 9.718-49.611t26.596-39.893 39.382-27.107 49.1-10.229z" />
<glyph unicode="&#xe930;" glyph-name="onedrive" horiz-adv-x="1583" d="M84.772 114.255l-2.145-0.219c-43.985 65.164-67.607 140.916-68.422 219.113-3.258 214.225 167.796 390.167 382.023 393.425v0c65.164 101.004 166.982 174.313 284.276 203.636 259.025 65.978 522.938-91.229 588.916-350.255-0.074 0.033-0.205 0.033-0.389 0h3.647c44.8-3.258 88.785-14.662 129.513-35.025 0 0 0.815-0.815 1.629-0.815 153.135-82.269 210.153-273.687 127.069-426.822l-5.204 1.627 2.746-1.627c-55.389-102.633-162.095-166.167-278.575-166.982h-847.942c-125.829 0.808-243.672 61.519-317.144 163.942z" />
<glyph unicode="&#xe931;" glyph-name="facebook" horiz-adv-x="465" d="M298.953-64h-173.244v512h-115.573v176.448l115.573 0.064-0.173 103.936c-0.029 143.968 35.221 231.552 188.326 231.552h127.477v-176.48h-79.658c-59.607 0-62.496-24.64-62.496-70.688l-0.231-88.32h143.281l-16.903-176.447-126.263-0.065-0.115-512z" />
<glyph unicode="&#xe932;" glyph-name="traditional" d="M716.8 883.2c127.246 0 230.4-103.154 230.4-230.4v0-409.6c0-127.246-103.154-230.4-230.4-230.4v0h-409.6c-127.246 0-230.4 103.154-230.4 230.4v0 409.6c0 127.246 103.154 230.4 230.4 230.4v0h409.6zM716.8 960h-409.6c-169.662 0-307.2-137.538-307.2-307.2v0-409.6c0-169.662 137.538-307.2 307.2-307.2v0h409.6c169.662 0 307.2 137.538 307.2 307.2v0 409.6c0 169.662-137.538 307.2-307.2 307.2v0zM319.744 650.24l-19.2-22.272h202.752c0-23.808 0-45.824-1.792-66.304h34.56v-39.936h-37.632c0-9.472-2.304-21.248-4.864-35.584h23.296v-32.512h-30.464l-3.072-10.496 17.152-13.056c-26.19-13.491-57.91-26.989-90.64-38.322l-5.36-1.614 118.784 4.352c20.736 10.752 46.592 25.6 76.8 41.728l44.8-29.44c-63.87-36.937-137.735-68.369-215.524-90.474l-6.94-1.686q102.4 4.096 220.672 12.288c-17.152 13.056-30.208 22.528-39.424 28.416l44.288 28.16c51.614-31.223 96.188-63.492 137.913-99.009l-1.465 1.217-51.2-34.304c-11.52 11.008-25.6 24.064-44.288 39.424l-146.688-8.704v-68.096c0-34.56-20.224-51.2-60.928-51.2h-54.016l-11.008 51.2c14.714-1.782 31.951-2.893 49.412-3.070l0.252-0.002c0.721-0.118 1.552-0.185 2.399-0.185 8.624 0 15.616 6.992 15.616 15.616 0 0.606-0.035 1.205-0.102 1.793l0.007-0.072v51.2c-62.464-3.328-128-5.888-200.96-7.936l-13.568 51.2c17.152-1.28 34.304-1.792 51.2-1.792 49.428 11.008 92.188 24.742 133.185 41.855l-5.185-1.919-131.584-5.12-9.728 45.824c2.344-0.134 5.086-0.211 7.846-0.211 14.255 0 28.034 2.041 41.059 5.845l-1.033-0.259c30.926 11.968 55.799 23.329 79.949 35.888l-4.429-2.096 3.84 13.056h-174.848c4.864 30.208 8.192 52.992 10.24 68.096h-37.376v39.936h42.496c2.304 20.48 4.096 35.84 4.864 46.080l-19.712-17.152-33.28 39.168c35.38 27.798 64.454 61.856 85.924 100.703l0.86 1.697 52.736-11.776-15.36-27.136h177.664v-43.008zM427.776 230.4c-48.16-26.178-103.99-48.113-162.654-62.925l-5.026-1.075-23.296 49.152c59.503 11.706 112.379 30.136 161.53 54.88l-3.578-1.632zM321.536 527.36l-6.656-41.216h87.040c-17.284 7.949-37.901 15.301-59.23 20.897l-2.722 0.607 12.8 19.712zM363.264 595.968h-33.024l-4.352-40.96h76.8c-14.978 7.627-32.712 14.76-51.111 20.365l-2.393 0.627zM407.552 486.144h35.584l6.912 41.216h-86.784c23.328-6.736 42.539-13.708 61.177-21.756l-3.321 1.276zM452.352 555.008l1.792 40.96h-83.456c21.717-6.584 40.209-14.061 57.865-22.955l-2.057 0.939-12.288-18.944zM571.648 588.032q-9.216-11.264-27.648-30.72l-33.792 40.704c34.77 38.109 62.654 83.202 81.242 132.835l0.934 2.845 54.272-12.288-19.2-43.008h157.952v-51.2h-34.304c-10.006-41.175-27.728-77.21-51.688-108.175l0.488 0.655c28.186-16.989 60.725-31.836 94.982-42.853l3.322-0.923-28.928-51.2c-41.329 14.97-77.099 33.811-109.752 56.784l1.464-0.976c-31.33-24.187-68.568-42.443-109.087-52.321l-2.017-0.415-28.928 45.568c37.676 8.133 70.907 23.069 99.919 43.576l-0.847-0.568c-19.838 20.172-36.12 43.916-47.784 70.167l-0.6 1.513zM614.4 271.104c64.936-15.142 120.806-33.509 174.442-56.132l-7.018 2.628-32-51.2c-47.656 22.145-103.815 41.73-162.125 55.8l-6.323 1.288zM605.184 629.504c10.659-30.576 28.269-56.434 51.015-76.638l0.185-0.162c17.668 21.823 31.864 47.335 41.223 75.074l0.505 1.726z" />
<glyph unicode="&#xe933;" glyph-name="fullscreen" d="M930.902 960c51.351-0.118 92.933-41.773 92.933-93.14 0 0 0 0 0 0v0-837.762c-0.118-51.278-41.655-92.815-92.921-92.933h-837.773c0 0 0 0 0 0-51.367 0-93.022 41.582-93.14 92.921v837.773c0 51.44 41.7 93.14 93.14 93.14v0zM599.876 103.627l258.528-2.073-2.073 258.528-93.927 0.705 0.87-98.28-150.549 150.591-65.824-65.824 150.591-150.549-98.28 0.87 0.705-93.927zM421.637 795.026l-258.736 2.073 2.073-258.528 93.927-0.705-0.87 98.28 150.591-150.591 65.824 65.824-150.591 150.591 98.28-0.87-0.663 93.927z" />
<glyph unicode="&#xe934;" glyph-name="googledrive" horiz-adv-x="1212" d="M404.326 941.271l-404.305-716.399 214.37-286.638 409.383 621.627-219.449 381.409zM1210.918 240.151h-762.819l-205.408-304.151h843.441l124.785 304.151zM807.416 958.98l-369.907 1.020 392.89-690.942 381.518 1.020-404.522 688.924zM807.459 958.98l-369.907 1.020 392.846-690.942 381.518 1.020-404.457 688.902z" />
<glyph unicode="&#xe935;" glyph-name="highlight" horiz-adv-x="1308" d="M296.015-4.267l726.54 4.204c1.519-0.006 3.021 0.228 4.426 0.683 1.405 0.449 2.685 1.121 3.76 1.957 1.070 0.842 1.923 1.843 2.503 2.941s0.876 2.281 0.876 3.47l3.612 382.967c0.011 2.418-1.195 4.743-3.362 6.468s-5.114 2.712-8.203 2.745h-0.205l-81.988-0.485 1.957 187.888c0.017 2.418-1.195 4.743-3.356 6.468-2.167 1.725-5.114 2.711-8.209 2.744h-0.205l-80.953-0.485 2.167 303.935-0.717 43.962c0 6.271 0.102 6.271 0.102 13.011l-0.108 44.608c-4.545 3.556-11.981 3.556-16.521 0l-356.146-278.721c-2.169-1.697-3.408-3.96-3.408-6.384l-0.517-122.592-82.814-0.485c-1.52 0.003-3.025-0.229-4.431-0.683s-2.681-1.121-3.756-1.962c-1.075-0.841-1.926-1.84-2.507-2.939s-0.876-2.278-0.872-3.467l-1.549-188.050-82.195-0.485c-1.52 0.003-3.026-0.229-4.431-0.683s-2.681-1.121-3.756-1.962c-1.075-0.841-1.927-1.84-2.507-2.939-0.58-1.097-0.876-2.28-0.873-3.469l-3.614-382.965c-0.413-5.177 4.75-9.216 11.255-9.296z" />
<glyph unicode="&#xe936;" glyph-name="day" d="M512 736c159.058 0 288-128.942 288-288s-128.942-288-288-288-288 128.942-288 288 128.942 288 288 288zM512 96c17.673 0 32-14.327 32-32v-64c0-17.673-14.327-32-32-32s-32 14.327-32 32v64c0 17.673 14.327 32 32 32zM263.098 199.098c12.497-12.496 12.497-32.758 0-45.254l-45.254-45.255c-12.497-12.497-32.758-12.497-45.255 0s-12.497 32.758 0 45.255l45.255 45.254c12.496 12.497 32.758 12.497 45.254 0zM806.156 199.098l45.255-45.254c12.497-12.497 12.497-32.758 0-45.255s-32.758-12.497-45.255 0l-45.254 45.255c-12.497 12.496-12.497 32.758 0 45.254s32.758 12.497 45.254 0zM128 480c17.673 0 32-14.327 32-32s-14.327-32-32-32h-64c-17.673 0-32 14.327-32 32s14.327 32 32 32h64zM960 480c17.673 0 32-14.327 32-32s-14.327-32-32-32h-64c-17.673 0-32 14.327-32 32s14.327 32 32 32h64zM217.844 787.411l45.254-45.255c12.497-12.496 12.497-32.758 0-45.254-12.496-12.497-32.758-12.497-45.254 0l-45.255 45.254c-12.497 12.497-12.497 32.758 0 45.255s32.758 12.497 45.255 0zM851.411 787.411c12.497-12.497 12.497-32.758 0-45.255l-45.255-45.254c-12.496-12.497-32.758-12.497-45.254 0-12.497 12.496-12.497 32.758 0 45.254l45.254 45.255c12.497 12.497 32.758 12.497 45.255 0zM512 928c17.673 0 32-14.327 32-32v-64c0-17.673-14.327-32-32-32s-32 14.327-32 32v64c0 17.673 14.327 32 32 32z" />
<glyph unicode="&#xe937;" glyph-name="list" d="M160 224h-128c-17.673 0-32-14.327-32-32v0-128c0-17.673 14.327-32 32-32v0h128c17.673 0 32 14.327 32 32v0 128c0 17.673-14.327 32-32 32v0zM160 864h-128c-17.673 0-32-14.327-32-32v0-128c0-17.673 14.327-32 32-32v0h128c17.673 0 32 14.327 32 32v0 128c0 17.673-14.327 32-32 32v0zM160 544h-128c-17.673 0-32-14.327-32-32v0-128c0-17.673 14.327-32 32-32v0h128c17.673 0 32 14.327 32 32v0 128c0 17.673-14.327 32-32 32v0zM992 192h-640c-17.673 0-32-14.327-32-32v0-64c0-17.673 14.327-32 32-32v0h640c17.673 0 32 14.327 32 32v0 64c0 17.673-14.327 32-32 32v0zM992 832h-640c-17.673 0-32-14.327-32-32v0-64c0-17.673 14.327-32 32-32v0h640c17.673 0 32 14.327 32 32v0 64c0 17.673-14.327 32-32 32v0zM992 512h-640c-17.673 0-32-14.327-32-32v0-64c0-17.673 14.327-32 32-32v0h640c17.673 0 32 14.327 32 32v0 64c0 17.673-14.327 32-32 32v0z" />
<glyph unicode="&#xe938;" glyph-name="more" d="M513.509-59.316c62.26 0 112.732 50.472 112.732 112.732s-50.472 112.732-112.732 112.732v0c-62.26 0-112.732-50.472-112.732-112.732s50.472-112.732 112.732-112.732v0zM513.509 335.249c62.26 0 112.732 50.472 112.732 112.732s-50.472 112.732-112.732 112.732v0c-62.26 0-112.732-50.472-112.732-112.732s50.472-112.732 112.732-112.732v0zM513.509 729.815c62.26 0 112.732 50.472 112.732 112.732s-50.472 112.732-112.732 112.732v0c-62.26 0-112.732-50.472-112.732-112.732s50.472-112.732 112.732-112.732v0z" />
<glyph unicode="&#xe939;" glyph-name="bookmark" d="M149.847 960v-1024l362.153 249.752 362.153-249.752v1024z" />
<glyph unicode="&#xe93a;" glyph-name="shelf" d="M314.343-36.583h235.688v942.524h-235.688zM392.906 630.994h78.563v-392.768h-78.563zM860.747 931.838l-232.153-40.957 164.013-928.152 232.153 41.049zM753.808 633.887l77.369 13.775 68.369-386.707-77.369-13.775zM0-33.139h235.734v942.524h-235.734zM78.563 634.438h78.563v-392.492h-78.563z" />
<glyph unicode="&#xe93b;" glyph-name="idea" d="M487.345 959.079c-181.191-13.547-323.069-163.888-323.069-347.365 0-86.92 31.841-166.403 84.495-227.421l-0.378 0.448c39.112-44.631 66.291-100.639 76.011-162.444l0.237-1.833c2.832-20.078 19.89-35.358 40.52-35.38h293.752c20.633 0.022 37.69 15.302 40.497 35.163l0.025 0.217c9.286 63.089 36.102 118.686 75.279 163.124l-0.297-0.343c52.895 60.769 85.139 140.726 85.139 228.214 0 192.434-155.999 348.432-348.432 348.432-8.367 0-16.666-0.295-24.886-0.875l1.106 0.063zM510.906 816.521c-107.672-0.338-195.763-83.713-203.608-189.425l-0.040-0.677c0.032-0.43 0.050-0.931 0.050-1.437 0-11.317-9.174-20.492-20.492-20.492s-20.492 9.174-20.492 20.492c0 1.806 0.234 3.557 0.672 5.225l-0.032-0.143c9.817 127.647 115.785 227.509 245.087 227.556h0.005c11.092-0.321 19.962-9.389 19.962-20.53 0-11.343-9.195-20.538-20.538-20.538-0.202 0-0.404 0.003-0.605 0.009l0.030-0.001zM629.865-64h-235.345c-72.488 0-91.022 103.877-29.356 103.877h293.98c61.551 0 43.324-103.877-29.356-103.877zM696.443 123.263v-21.95c0-11.317-9.174-20.492-20.492-20.492h-327.749c-11.317 0-20.492 9.174-20.492 20.492v22.103c0 11.317 9.174 20.492 20.492 20.492v0h327.672c11.301-0.022 20.453-9.188 20.453-20.491 0 0 0 0 0 0v0z" />
<glyph unicode="&#xe93c;" glyph-name="recent" d="M512 960c-0.015 0-0.032 0-0.049 0-282.77 0-512-229.23-512-512s229.23-512 512-512c282.77 0 512 229.23 512 512v0c0 282.753-229.203 511.972-511.949 512h-0.002zM679.572 280.476c-8.17-8.7-19.745-14.119-32.586-14.119s-24.417 5.419-32.564 14.095l-0.022 0.024-136.080 134.962c-4.858 4.4-9.147 9.274-12.842 14.593l-0.183 0.279c-0.396 2.658-0.622 5.725-0.622 8.845s0.226 6.188 0.663 9.187l-0.041-0.341v232.745c-0.015 0.448-0.024 0.975-0.024 1.504 0 25.714 20.845 46.559 46.559 46.559s46.559-20.845 46.559-46.559c0-0.529-0.009-1.056-0.026-1.58l0.002 0.076v-213.159l121.014-121.937c8.7-8.17 14.119-19.745 14.119-32.586s-5.419-24.417-14.095-32.564l-0.024-0.022z" />
<glyph unicode="&#xe93d;" glyph-name="sort" d="M749.669 364.387c26.2 9.243 35.709-2.527 21.346-26.2l-233.138-383.953c-4.195-10.501-14.28-17.785-26.067-17.785s-21.872 7.284-26 17.596l-0.067 0.189-233.138 383.953c-14.43 23.739-4.854 35.443 21.346 26.2l16.225-5.719c66.327-20.561 142.581-32.403 221.601-32.403s155.274 11.842 227.084 33.849l-5.483-1.446zM274.016 532.092c-26.2-9.243-35.709 2.527-21.346 26.2l233.138 383.953c4.195 10.501 14.28 17.785 26.067 17.785s21.872-7.284 26-17.596l0.067-0.189 233.138-383.953c14.43-23.739 4.854-35.443-21.346-26.2l-16.225 5.719c-66.327 20.561-142.581 32.403-221.601 32.403s-155.274-11.842-227.084-33.849l5.483 1.446z" />
<glyph unicode="&#xe93e;" glyph-name="search" d="M883.9 149.2l-173.2 182.7c38.2 52.3 59.7 114.8 61.5 180.9 2.3 86-29 167.8-88.2 230.2-59.2 62.5-139.2 98.1-225.2 100.4-86.1 2.3-167.8-29-230.2-88.2-62.5-59.2-98.1-139.2-100.4-225.2s29-167.8 88.2-230.2c59.2-62.5 139.2-98.1 225.2-100.4 3-0.1 5.9-0.1 8.9-0.1 62.9 0 123.2 18 175 51.8l173.2-182.8c11.6-12.2 27.1-18.3 42.7-18.3 14.5 0 29 5.3 40.4 16.1 23.4 22.3 24.4 59.5 2.1 83.1zM444.1 295.6c-60.3 1.6-116.4 26.6-158 70.5-41.5 43.8-63.5 101.2-61.9 161.5s26.6 116.4 70.5 158c42.3 40.1 97.2 62 155.3 62 2.1 0 4.2 0 6.2-0.1 60.3-1.6 116.4-26.6 158-70.5 41.5-43.8 63.5-101.2 61.9-161.5s-26.6-116.4-70.5-158c-43.8-41.6-101.2-63.5-161.5-61.9z" />
<glyph unicode="&#xe93f;" glyph-name="grid" d="M904-50.667h-224c-61.856 0-112 50.144-112 112v0 224c0 61.856 50.144 112 112 112h224c61.856 0 112-50.144 112-112v0-224c0-61.856-50.144-112-112-112v0zM904 285.333h-224v-224h224v224zM904 509.333h-224c-61.856 0-112 50.144-112 112v0 224c0 61.856 50.144 112 112 112v0h224c61.856 0 112-50.144 112-112v0-224c0-61.856-50.144-112-112-112v0zM904 845.333h-224v-224h224v224zM344-50.667h-224c-61.856 0-112 50.144-112 112v0 224c0 61.856 50.144 112 112 112v0h224c61.856 0 112-50.144 112-112v0-224c0-61.856-50.144-112-112-112v0zM344 285.333h-224v-224h224v224zM344 509.333h-224c-61.856 0-112 50.144-112 112v224c0 61.856 50.144 112 112 112v0h224c61.856 0 112-50.144 112-112v-224c0-61.856-50.144-112-112-112v0zM344 845.333h-224v-224h224v224z" />
<glyph unicode="&#xe940;" glyph-name="dropdown" horiz-adv-x="1040" d="M520.069 330.405l-393.395 393.395c-29.121 29.121-75.714 29.121-104.835 0s-29.121-75.714 0-104.835l435.223-435.223c2.647-4.236 5.824-7.942 9.53-11.648 14.825-14.825 33.886-22.238 53.476-21.708 19.061 0 38.651 6.883 53.476 21.708 3.707 3.707 6.883 7.413 9.53 11.648l435.223 435.223c14.295 14.295 21.708 33.357 21.708 52.417s-7.413 38.122-21.708 52.417c-29.121 29.121-75.714 29.121-104.835 0l-393.395-393.395z" />
<glyph unicode="&#xe941;" glyph-name="eye" d="M448 448c0-35.346 28.654-64 64-64s64 28.654 64 64v0c0 35.346-28.654 64-64 64s-64-28.654-64-64v0zM933.12 469.333c-27.307 47.36-177.493 285.013-432.64 277.333-235.947-5.973-372.48-213.333-409.6-277.333-3.594-6.12-5.716-13.479-5.716-21.333s2.123-15.214 5.825-21.535l-0.109 0.201c26.88-46.507 170.667-277.333 421.973-277.333h10.667c235.947 5.973 372.907 213.333 409.6 277.333 3.594 6.12 5.716 13.479 5.716 21.333s-2.123 15.214-5.825 21.535l0.109-0.201zM512 298.667c-82.475 0-149.333 66.859-149.333 149.333s66.859 149.333 149.333 149.333c82.475 0 149.333-66.859 149.333-149.333v0c0-82.475-66.859-149.333-149.333-149.333v0z" />
<glyph unicode="&#xe942;" glyph-name="night" d="M731.819 858.965c0.276-1.824 0.434-3.928 0.434-6.069 0-14.469-7.202-27.255-18.217-34.971l-0.137-0.091c-83.808-58.529-137.949-154.526-137.949-263.168 0-176.731 143.269-320 320-320 0.018 0 0.035 0 0.053 0h-0.003c23.546-0.024 42.624-19.117 42.624-42.667 0-9.653-3.206-18.558-8.611-25.707l0.078 0.107c-85.504-113.92-221.867-187.733-375.424-187.733-259.2 0-469.333 210.133-469.333 469.333s210.133 469.333 469.333 469.333c51.755 0 101.675-8.405 148.395-23.936 15.19-5.167 26.375-18.246 28.729-34.2l0.028-0.232z" />
<glyph unicode="&#xe943;" glyph-name="trash-line" d="M416.285 581.789c-17.673 0-32-14.327-32-32v-344.574c0-17.673 14.327-32 32-32s32 14.327 32 32v344.574c0 17.673-14.326 32-32 32zM597.407 581.789c-17.673 0-32-14.327-32-32v-344.574c0-17.673 14.327-32 32-32s32 14.327 32 32v344.574c0 17.673-14.327 32-32 32zM833.43 847.582h-192.243v13.989c0 18.472-15.028 33.5-33.5 33.5h-193.215c-18.472 0-33.5-15.028-33.5-33.5v-13.989h-190.402c-19.851 0-36-16.149-36-36v-112.748c0-19.851 16.149-36 36-36h16.93c-12.358-22.526-17.819-49.862-15.203-78.221 0.014-0.15 0.029-0.301 0.045-0.451l52.619-493.881c2.274-23.978 13.394-46.381 31.33-63.107 18.147-16.924 41.295-26.244 65.181-26.244h339.733c23.875 0 47.028 9.313 65.193 26.226 17.948 16.711 29.1 39.096 31.419 63.055l53.66 493.886c0.017 0.153 0.032 0.306 0.047 0.459 2.67 28.38-2.752 55.737-15.089 78.279h16.996c19.851 0 36 16.149 36 36v112.747c-0.001 19.85-16.15 36-36.001 36zM767.825 590.764l-53.655-493.84c-0.017-0.152-0.032-0.306-0.047-0.459-1.607-17.095-16.683-31.536-32.919-31.536h-339.733c-16.208 0-31.23 14.415-32.804 31.479-0.014 0.15-0.029 0.301-0.045 0.45l-52.615 493.839c-1.799 20.027 3.513 38.979 14.229 50.728 6.272 6.878 13.546 10.365 21.62 10.365h440.288c8.060 0 15.313-3.479 21.558-10.339 10.683-11.734 15.955-30.67 14.123-50.687zM218.57 783.582h586.86v-56.748h-586.86v56.748z" />
<glyph unicode="&#xe944;" glyph-name="detail" d="M910.2 618c-22 51.9-53.4 98.5-93.4 138.6-40 40-86.7 71.5-138.6 93.4-53.8 22.7-110.9 34.3-169.7 34.3s-115.9-11.5-169.7-34.3c-51.9-22-98.5-53.4-138.6-93.4-40-40-71.5-86.7-93.4-138.6-22.8-53.8-34.3-110.9-34.3-169.8 0-58.8 11.5-115.9 34.3-169.7 22-51.9 53.4-98.5 93.4-138.6 40-40 86.7-71.5 138.6-93.4 53.8-22.7 110.9-34.3 169.7-34.3s115.9 11.5 169.7 34.3c51.9 22 98.5 53.4 138.6 93.4 40 40 71.5 86.7 93.4 138.6 22.7 53.8 34.3 110.9 34.3 169.7 0 58.9-11.5 116-34.3 169.8zM765.9 191c-68.8-68.8-160.2-106.7-257.4-106.7s-188.6 37.9-257.4 106.6c-68.7 68.8-106.6 160.1-106.6 257.3s37.9 188.6 106.6 257.4 160.2 106.6 257.4 106.6 188.6-37.9 257.4-106.6c68.8-68.8 106.6-160.2 106.6-257.4s-37.9-188.5-106.6-257.2zM508.5 529.2c-19.9 0-36-16.1-36-36v-205.2c0-19.9 16.1-36 36-36s36 16.1 36 36v205.2c0 19.9-16.1 36-36 36zM508.5 644.5c-19.9 0-36-16.1-36-36s16.1-36 36-36 36 16.1 36 36-16.1 36-36 36z" />
<glyph unicode="&#xe945;" glyph-name="bookshelf" d="M938.667 682.667c0 38.4 12.8 76.8 29.867 110.933s-4.267 81.067-42.667 81.067h-733.867c-106.667 0-192-85.333-192-192s85.333-192 192-192h733.867c38.4 0 59.733 46.933 42.667 81.067s-29.867 72.533-29.867 110.933zM874.667 576h-682.667c-59.733 0-106.667 46.933-106.667 106.667s46.933 106.667 106.667 106.667h682.667c-12.8-29.867-21.333-68.267-21.333-106.667s8.533-76.8 21.333-106.667zM832 405.333h-733.867c-38.4 0-59.733-46.933-42.667-81.067s29.867-72.533 29.867-110.933c0-38.4-12.8-76.8-29.867-110.933s4.267-81.067 42.667-81.067h733.867c106.667 0 192 85.333 192 192s-85.333 192-192 192zM832 106.667h-682.667c12.8 29.867 21.333 68.267 21.333 106.667s-8.533 76.8-21.333 106.667h682.667c59.733 0 106.667-46.933 106.667-106.667s-46.933-106.667-106.667-106.667z" />
<glyph unicode="&#xe946;" glyph-name="edit-line" d="M257.7 208c2 0 4 0.2 6 0.5l168.2 29.5c2 0.4 3.9 1.3 5.3 2.8l423.9 423.9c3.9 3.9 3.9 10.2 0 14.1l-166.2 166.3c-1.9 1.9-4.4 2.9-7.1 2.9s-5.2-1-7.1-2.9l-423.9-423.9c-1.5-1.5-2.4-3.3-2.8-5.3l-29.5-168.2c-1.9-11.1 1.5-21.9 9.4-29.8 6.6-6.4 14.9-9.9 23.8-9.9zM325.1 382.4l362.7 362.6 73.3-73.3-362.7-362.6-88.9-15.7 15.6 89zM880 124h-736c-17.7 0-32-14.3-32-32v-36c0-4.4 3.6-8 8-8h784c4.4 0 8 3.6 8 8v36c0 17.7-14.3 32-32 32z" />
<glyph unicode="&#xe947;" glyph-name="address-book" d="M780.19 838.095c40.396 0 73.143-32.747 73.143-73.143v0-633.905c0-40.396-32.747-73.143-73.143-73.143v0h-487.619c-40.396 0-73.143 32.747-73.143 73.143v0 48.762h-48.762v73.143h170.667v-73.143h-48.762v-48.762h487.619v633.905h-487.619v-48.762h48.762v-73.143h-170.667v73.143h48.762v48.762c0 40.396 32.747 73.143 73.143 73.143h487.619zM715.508 716.19v-536.381h-73.143v536.381h73.143zM292.571 594.286v-292.571h-73.143v292.571h73.143z" />
<glyph unicode="&#xe948;" glyph-name="idea-line" d="M661.306 277.023c-12.42 0-24.55 6.252-31.54 17.604-10.716 17.4-5.297 40.191 12.104 50.907 74.011 45.578 118.196 124.607 118.196 211.401-0.001 136.783-111.283 248.065-248.066 248.065s-248.065-111.282-248.065-248.065c0-86.794 44.186-165.822 118.196-211.401 17.4-10.715 22.819-33.507 12.104-50.907-10.717-17.399-33.509-22.818-50.906-12.103-45.975 28.312-84.42 68.048-111.181 114.911-27.616 48.362-42.213 103.516-42.213 159.5 0 43.462 8.521 85.644 25.324 125.374 16.224 38.356 39.44 72.795 69.007 102.361 29.565 29.566 64.005 52.783 102.36 69.006 39.729 16.804 81.912 25.324 125.374 25.324s85.645-8.521 125.374-25.325c38.355-16.223 72.795-39.44 102.36-69.006s52.783-64.005 69.007-102.361c16.804-39.729 25.324-81.911 25.324-125.374 0-55.984-14.597-111.139-42.213-159.5-26.761-46.863-65.206-86.599-111.181-114.911-5.505-3.452-12.195-5.5-19.364-5.5 0 0-0.001 0-0.001 0v0zM661.269 134.696h-298.538c-20.435 0-37 16.565-37 37v140.174c0 20.435 16.565 37 37 37s37-16.565 37-37v-103.174h224.537v103.174c0 20.435 16.565 37 37 37s37-16.565 37-37v-140.174c0.001-20.435-16.565-37-36.999-37zM619.565 4.696h-215.13c-20.435 0-37 16.565-37 37s16.565 37 37 37h215.131c20.435 0 37-16.565 37-37s-16.566-37-37.001-37z" />
<glyph unicode="&#xe949;" glyph-name="heart" d="M923 676.4c-13.4 31.1-32.6 58.9-56.9 82.8-24.3 23.8-52.5 42.4-84 55.5-32.5 13.5-66.9 20.3-102.4 20.3-49.3 0-97.4-13.5-139.2-39-10-6.1-19.5-12.8-28.5-20.1-9 7.3-18.5 14-28.5 20.1-41.8 25.5-89.9 39-139.2 39-35.5 0-69.9-6.8-102.4-20.3-31.4-13-59.7-31.7-84-55.5-24.4-23.9-43.5-51.7-56.9-82.8-13.9-32.3-21-66.6-21-101.9 0-33.3 6.8-68 20.3-103.3 11.3-29.5 27.5-60.1 48.2-91 32.8-48.9 77.9-99.9 133.9-151.6 92.8-85.7 184.7-144.9 188.6-147.3l23.7-15.2c10.5-6.7 24-6.7 34.5 0l23.7 15.2c3.9 2.5 95.7 61.6 188.6 147.3 56 51.7 101.1 102.7 133.9 151.6 20.7 30.9 37 61.5 48.2 91 13.5 35.3 20.3 70 20.3 103.3 0.1 35.3-7 69.6-20.9 101.9zM512 145.2s-356 228.1-356 429.3c0 101.9 84.3 184.5 188.3 184.5 73.1 0 136.5-40.8 167.7-100.4 31.2 59.6 94.6 100.4 167.7 100.4 104 0 188.3-82.6 188.3-184.5 0-201.2-356-429.3-356-429.3z" />
<glyph unicode="&#xe94a;" glyph-name="home-line" d="M923.733 565.333c-85.333 70.4-206.933 174.933-362.667 309.333-27.733 23.467-70.4 23.467-98.133 0-155.733-134.4-277.333-238.933-362.667-309.333-14.933-14.933-25.6-34.133-25.6-53.333 0-38.4 32-70.4 70.4-70.4h46.933v-358.4c0-29.867 23.467-53.333 53.333-53.333h160c29.867 0 53.333 23.467 53.333 53.333v206.933h106.667v-206.933c0-29.867 23.467-53.333 53.333-53.333h160c29.867 0 53.333 23.467 53.333 53.333v358.4h46.933c38.4 0 70.4 32 70.4 70.4 0 21.333-10.667 40.533-25.6 53.333zM878.933 505.6h-57.6c-29.867 0-53.333-23.467-53.333-53.333v-358.4h-138.667v204.8c0 29.867-23.467 53.333-53.333 53.333h-128c-29.867 0-53.333-23.467-53.333-53.333v-206.933h-138.667v360.533c0 29.867-23.467 53.333-53.333 53.333h-57.6c-4.267 0-6.4 2.133-6.4 6.4 0 2.133 2.133 4.267 2.133 6.4 85.333 70.4 206.933 174.933 362.667 309.333 4.267 4.267 10.667 4.267 14.933 0 155.733-134.4 277.333-238.933 362.667-309.333 2.133-2.133 2.133-2.133 2.133-4.267 2.133-6.4-2.133-8.533-4.267-8.533z" />
<glyph unicode="&#xe94b;" glyph-name="bookshelf-line" d="M882.667 651.867c0 33.36 11.12 66.72 25.947 96.373s-3.707 70.427-37.067 70.427h-637.547c-92.667 0-166.8-74.133-166.8-166.8s74.133-166.8 166.8-166.8h637.547c33.36 0 51.893 40.773 37.067 70.427s-25.947 63.013-25.947 96.373zM827.067 559.2h-593.067c-51.893 0-92.667 40.773-92.667 92.667s40.773 92.667 92.667 92.667h593.067c-11.12-25.947-18.533-59.307-18.533-92.667s7.413-66.72 18.533-92.667zM790 410.933h-637.547c-33.36 0-51.893-40.773-37.067-70.427s25.947-63.013 25.947-96.373c0-33.36-11.12-66.72-25.947-96.373s3.707-70.427 37.067-70.427h637.547c92.667 0 166.8 74.133 166.8 166.8s-74.133 166.8-166.8 166.8zM790 151.467h-593.067c11.12 25.947 18.533 59.307 18.533 92.667s-7.413 66.72-18.533 92.667h593.067c51.893 0 92.667-40.773 92.667-92.667s-40.773-92.667-92.667-92.667z" />
<glyph unicode="&#xe94c;" glyph-name="highlight-line" d="M512 822.34c-205.617 0-372.309-166.69-372.309-372.309s166.69-372.309 372.309-372.309 372.309 166.69 372.309 372.309-166.69 372.309-372.309 372.309zM72 450.030c0 243.018 196.982 440 440 440s440-196.982 440-440-196.982-440-440-440-440 196.982-440 440zM631.34 715.721c9.689-6.066 16.033-16.676 16.040-28.769v-304.617c0-18.692-15.152-33.849-33.849-33.849s-33.849 15.153-33.849 33.849v249.851l-135.382-67.691v-182.16c0-18.692-15.152-33.849-33.849-33.849s-33.849 15.153-33.849 33.849v203.080c0.009 13.172 7.537 24.582 18.522 30.168l0.192 0.085 203.080 101.54c4.419 2.262 9.635 3.587 15.158 3.587 6.575 0 12.72-1.878 17.911-5.126l-0.138 0.082zM328.76 396.35c12.244 12.249 29.17 19.827 47.859 19.831h270.771c37.383 0 67.691-30.307 67.691-67.691v0-267.79c0-18.692-15.153-33.849-33.849-33.849s-33.849 15.153-33.849 33.849v267.79h-270.769v-267.79c0-18.692-15.152-33.849-33.849-33.849s-33.849 15.153-33.849 33.849v267.79c0.005 18.69 7.582 35.613 19.831 47.86v0z" />
<glyph unicode="&#xe94d;" glyph-name="select" d="M940.117 753.094c-19.684 19.684-51.669 19.684-68.892 0l-477.326-482.246-241.124 236.202c-19.684 19.684-51.669 19.684-68.892 0-19.684-19.684-19.684-51.669 0-68.892l275.569-270.649c9.841-9.841 22.144-14.763 34.447-14.763s24.604 4.921 34.447 14.763l511.771 516.693c19.684 19.684 19.684 49.209 0 68.892z" />
<glyph unicode="&#xe94e;" glyph-name="dict" d="M301.056 300.032h201.984c177.408 0 270.336 96.512 270.336 268.544 0 178.432-99.584 266.24-270.336 266.24h-201.984v-534.784zM949.76 836.864v-516.608c0-91.904-73.728-166.144-170.496-166.144h-565.248c-25.6 0-47.616-19.968-47.616-46.336v-57.6c0-24.832 20.48-46.336 47.616-46.336h722.944c-19.968-40.192-64-67.84-112.64-67.84h-619.52c-66.56 0-125.44 52.224-125.44 122.112v778.752c0 64.768 51.968 123.136 125.44 123.136h619.52c69.632 0 125.44-55.040 125.44-123.136zM391.424 374.528v385.28h93.952c140.8 0 198.4-58.368 198.4-192 0-136.448-65.024-193.28-198.4-193.28h-93.952z" />
<glyph unicode="&#xe94f;" glyph-name="internet" d="M512 904.533c251.733 0 456.533-204.715 456.533-456.533 0-251.904-204.629-456.533-456.533-456.533-251.819 0-456.533 204.8-456.533 456.533 0 251.819 204.8 456.533 456.533 456.533zM609.408 263.936l-195.2 0.341 0.299-1.152c23.381-104.96 65.792-175.36 97.493-175.36 30.592 0 71.083 65.493 94.677 163.968l2.731 12.203zM707.499 263.637l-2.56-13.227c-8.558-41.926-19.688-78.463-33.799-113.477l1.543 4.335-6.912-15.915-1.792-3.84 4.992 2.261c60 29.539 109.146 73.131 144.482 126.644l0.841 1.356 7.211 11.605-114.005 0.256zM202.112 264.533l7.296-11.733c36.149-55.309 85.415-99.266 143.508-128.117l2.113-0.949 4.779-2.176-2.773 5.973-5.76 13.867c-12.533 30.786-23.65 67.484-31.483 105.383l-0.73 4.227-2.603 13.227-114.347 0.256zM720.171 540.203l1.408-16.384c1.868-23.182 2.933-50.187 2.933-77.44 0-25.193-0.91-50.173-2.699-74.91l0.192 3.316-1.28-15.147 140.715-0.341 2.304 9.045c4.693 20.608 7.509 41.728 8.448 63.36l0.341 16.299c0 28.16-3.157 55.765-9.429 82.261l-2.56 9.643-140.373 0.299zM163.712 540.843l-2.603-10.112c-5.945-23.996-9.356-51.545-9.356-79.889 0-0.999 0.004-1.997 0.013-2.995l-0.001 0.153c0-24.021 2.304-47.701 6.827-70.528l3.883-17.195 141.056-0.341-1.195 15.189c-0.989 13.392-1.788 30.317-2.194 47.34l-0.025 1.3-0.299 24.235c0 26.027 0.896 51.712 2.688 76.843l1.323 15.659-140.117 0.341zM400.384 540.843l-1.152-11.776c-2.174-23.912-3.414-51.72-3.414-79.819 0-0.334 0-0.668 0.001-1.001v0.052c0-27.051 1.024-52.864 2.987-77.483l0.981-10.539 224.683-0.341 1.024 10.581c1.493 18.475 2.432 37.675 2.816 57.6l0.171 20.181c0 29.013-1.024 56.149-3.2 81.28l-1.067 10.923-223.829 0.341zM664.149 774.784l2.816-5.973 5.76-13.909c12.715-31.403 23.296-66.987 31.573-105.941l2.517-12.757 112.64-0.299-6.997 11.051c-35.993 53.895-84.609 96.725-141.754 124.881l-2.118 0.943-4.437 2.005zM512 808.533c-29.995 0-70.144-63.872-93.867-160l-2.901-12.032 193.493-0.299-0.256 1.195c-22.528 98.688-62.165 165.973-92.971 170.88l-3.499 0.256zM359.936 774.827l-4.352-2.048c-59.034-29.047-107.532-71.583-142.84-123.773l-0.819-1.283-7.040-10.923 112.256-0.299 2.56 12.672c6.827 32.299 15.36 62.293 25.387 89.728l6.229 16.128 6.912 15.915 1.707 3.883z" />
<glyph unicode="&#xe950;" glyph-name="browser" d="M512-2.56c-248.832 0-450.56 201.728-450.56 450.56s201.728 450.56 450.56 450.56 450.56-201.728 450.56-450.56-201.728-450.56-450.56-450.56zM386.499 599.716c-12.403-4.225-21.989-13.811-26.128-25.923l-0.087-0.292-112.394-337.162c-1.353-3.918-2.134-8.434-2.134-13.132 0-22.904 18.568-41.472 41.472-41.472 4.698 0 9.213 0.781 13.424 2.221l-0.292-0.087 337.142 112.394c12.403 4.225 21.989 13.811 26.128 25.923l0.087 0.292 112.394 337.162c1.353 3.918 2.134 8.434 2.134 13.132 0 22.904-18.568 41.472-41.472 41.472-4.698 0-9.213-0.781-13.424-2.221l0.292 0.087-337.142-112.394zM512 366.080c-45.243 0-81.92 36.677-81.92 81.92s36.677 81.92 81.92 81.92v0c45.243 0 81.92-36.677 81.92-81.92s-36.677-81.92-81.92-81.92v0z" />
<glyph unicode="&#xe951;" glyph-name="archive" horiz-adv-x="1126" d="M858.317 960c39.868-0.001 74.414-22.787 91.328-56.045l0.269-0.582 165.683-331.366c6.811-13.336 10.802-29.088 10.803-45.772v0-436.634c0-0.003 0-0.006 0-0.009 0-81.661-63.725-148.438-144.16-153.315l-0.429-0.021-9.011-0.256h-819.2c-84.831 0-153.6 68.769-153.6 153.6v436.634c0.001 16.685 3.993 32.437 11.072 46.355l-0.269-0.582 165.683 331.366c17.183 33.842 51.731 56.627 91.6 56.627 0.017 0 0.034 0 0.050 0h590.18zM364.851 448h-262.451v-358.4c0-0.006 0-0.013 0-0.020 0-27.773 22.113-50.381 49.693-51.178l0.074-0.002h820.634c0.006 0 0.013 0 0.020 0 27.773 0 50.381 22.113 51.178 49.693l0.002 0.074v359.834h-262.451l-0.205-0.819c-23.574-87.553-101.548-151.206-194.639-152.778l-0.177-0.002h-6.81c-92.359 1.622-169.689 64.107-193.699 148.982l-0.349 1.444-0.768 3.174zM826.675 857.6h-526.95c-19.924-0.011-37.185-11.401-45.639-28.023l-0.134-0.291-139.469-278.886h295.117c26.163-0.004 47.741-19.63 50.817-44.964l0.024-0.246 0.358-5.99c0-0.004 0-0.010 0-0.015 0-55.942 44.859-101.406 100.568-102.384l0.092-0.001h1.741c0.004 0 0.010 0 0.015 0 55.942 0 101.406 44.859 102.384 100.568l0.001 0.092v1.741c0 28.277 22.923 51.2 51.2 51.2v0h295.117l-139.469 278.886c-8.587 16.913-25.849 28.303-45.771 28.314h-0.001z" />
<glyph unicode="&#xe952;" glyph-name="microsoft" horiz-adv-x="910" d="M47.333 924.444h404.505v-448h-404.505v448zM451.838-21.333h-404.505v448h404.505v-448zM901.291 924.444v-448h-404.507v448h404.507zM901.291-21.333h-404.507v448h404.507v-448z" />
<glyph unicode="&#xe953;" glyph-name="email" d="M926.476 604.355v-424.546c0-40.396-32.747-73.143-73.143-73.143v0h-682.667c-40.396 0-73.143 32.747-73.143 73.143v0 424.546l304.104-257.829c29.55-25.177 68.173-40.494 110.373-40.494s80.823 15.316 110.613 40.693l-0.24-0.2 304.104 257.829zM853.333 789.333c9.377-0.011 18.343-1.763 26.593-4.951l-0.506 0.172c12.317-4.773 22.637-12.381 30.518-22.054l0.104-0.132c4.184-5.095 7.766-10.92 10.495-17.201l0.184-0.475c3.17-7.509 5.12-15.653 5.608-24.21l0.146-4.291v-24.381l-367.006-313.051c-12.69-10.875-29.306-17.495-47.468-17.495-16.528 0-31.776 5.482-44.024 14.727l0.185-0.134-3.633 2.926-367.006 313.027v24.381c0 0.048 0 0.104 0 0.16 0 28.321 16.15 52.871 39.744 64.94l0.412 0.191c9.583 4.949 20.916 7.851 32.926 7.851 0.022 0 0.043 0 0.065 0h682.663z" />
<glyph unicode="&#xe954;" glyph-name="ftp" d="M506.248 220.293c-2.877 2.396-6.503 3.707-10.248 3.707-4.243 0-8.313-1.684-11.314-4.685s-4.686-7.071-4.686-11.315v-80h-64c-8.487 0-16.626-3.369-22.627-9.375-6.001-6.001-9.373-14.136-9.373-22.625l-274.88-0.256c-3.934-0.712-7.459-2.872-9.881-6.052-2.422-3.185-3.564-7.158-3.203-11.136 0.361-3.983 2.201-7.685 5.155-10.378s6.811-4.183 10.809-4.178h272c0-8.489 3.372-16.625 9.373-22.625 6.001-6.006 14.14-9.375 22.627-9.375h160c8.489 0 16.625 3.369 22.625 9.375 6.006 6.001 9.375 14.136 9.375 22.625l306.877 0.256c3.937 0.712 7.46 2.872 9.882 6.052 2.422 3.185 3.569 7.158 3.205 11.136-0.364 3.983-2.202 7.685-5.156 10.378s-6.81 4.183-10.808 4.178h-304c0 8.489-3.369 16.625-9.375 22.625-6.001 6.006-14.136 9.375-22.625 9.375h-64v80l-0.256 2.877c-0.674 3.686-2.619 7.014-5.496 9.416zM416 64v32h160v-32h-160zM894.582 668.733c-3.994 1.715-8.305 2.6-12.662 2.595h-745.696c-0.301 0.001-0.601-0.004-0.901-0.012-4.504-0.125-8.933-1.2-12.998-3.158-0.271-0.131-0.54-0.265-0.807-0.402-4.002-2.069-7.525-4.961-10.336-8.49-0.375-0.471-0.736-0.951-1.083-1.44-2.427-3.426-4.16-7.303-5.093-11.409-1.066-4.693-1.060-9.566 0.018-14.256 0 0 0 0 0-0.001l80.896-351.998c1.623-7.060 5.592-13.358 11.259-17.869 0 0 0 0 0.001 0 5.667-4.511 12.697-6.968 19.94-6.963h560.48c6.907-0.010 13.635 2.217 19.169 6.349 5.535 4.127 9.59 9.938 11.551 16.563l104.32 351.998c1.413 4.777 1.695 9.819 0.819 14.723-0.056 0.307-0.118 0.612-0.179 0.916-0.957 4.564-2.898 8.869-5.693 12.611-0.374 0.499-0.758 0.986-1.162 1.46-2.801 3.324-6.252 6.047-10.153 7.997-0.553 0.279-1.121 0.54-1.69 0.785zM416.576 854.24c-8.216 5.99-18.121 9.218-28.288 9.216h-179.648l-4.64-0.224c-11.871-1.153-22.888-6.685-30.904-15.517s-12.456-20.332-12.456-32.26v-96.448l0.256-2.88c0.712-3.934 2.872-7.459 6.053-9.881s7.154-3.565 11.137-3.203c3.982 0.361 7.684 2.2 10.378 5.155s4.184 6.811 4.176 10.809v96.448l0.256 2.88c0.674 3.684 2.619 7.014 5.496 9.412s6.503 3.71 10.248 3.708h179.648l2.944-0.288c2.911-0.543 5.614-1.884 7.808-3.872l52.384-47.424 3.936-3.2c8.215-5.99 18.121-9.218 28.288-9.216l303.583-0.288c3.681-0.673 7.004-2.613 9.4-5.484 2.401-2.87 3.717-6.489 3.722-10.229v-32.448l0.256-2.88c0.712-3.934 2.872-7.459 6.052-9.881s7.153-3.565 11.136-3.203c3.983 0.361 7.685 2.2 10.378 5.155s4.183 6.811 4.178 10.809v32.448l-0.195 4.608c-1.147 11.883-6.676 22.912-15.519 30.935-8.837 8.023-20.352 12.465-32.287 12.457l-303.649 0.256c-2.911 0.544-5.614 1.884-7.808 3.872l-52.384 47.456-3.936 3.2zM303.247 381.44v167.564h107.345v-25.445h-76.991v-45.491h69.627v-25.445h-69.627v-71.182h-30.354zM437.796 523.558v25.445h133.688v-25.445h-51.789v-142.118h-30.109v142.118h-51.791zM604.17 381.44v167.564h62.838c12.872 0 23.675-2.4 32.399-7.2 8.781-4.8 15.411-11.4 19.881-19.8 4.526-8.345 6.794-17.836 6.794-28.472 0-10.746-2.268-20.291-6.794-28.637s-11.208-14.918-20.045-19.716c-8.837-4.746-19.717-7.122-32.645-7.122h-32.072v-56.617h-30.356zM662.508 463.013h-27.981v60.627h27.817c7.583 0 13.773-1.282 18.575-3.845 4.854-2.509 8.422-6.027 10.716-10.555 2.345-4.527 3.517-9.763 3.517-15.709s-1.172-11.209-3.517-15.791c-2.294-4.582-5.837-8.182-10.634-10.8-4.803-2.618-10.967-3.927-18.493-3.927z" />
<glyph unicode="&#xe955;" glyph-name="smb" d="M506.248 220.293c-2.876 2.396-6.503 3.707-10.248 3.707-4.243 0-8.313-1.684-11.314-4.685s-4.686-7.071-4.686-11.315v-80h-64c-8.487 0-16.626-3.369-22.627-9.375-6.001-6.001-9.373-14.136-9.373-22.625l-274.88-0.256c-3.934-0.712-7.459-2.872-9.881-6.052-2.421-3.185-3.564-7.158-3.203-11.136 0.361-3.983 2.201-7.685 5.155-10.378s6.811-4.183 10.809-4.178h272c0-8.489 3.372-16.625 9.373-22.625 6.001-6.006 14.14-9.375 22.627-9.375h160c8.489 0 16.625 3.369 22.625 9.375 6.006 6.001 9.375 14.136 9.375 22.625l306.883 0.256c3.932 0.712 7.455 2.872 9.876 6.052 2.422 3.185 3.569 7.158 3.205 11.136-0.364 3.983-2.202 7.685-5.156 10.378s-6.81 4.183-10.808 4.178h-304c0 8.489-3.369 16.625-9.375 22.625-6.001 6.006-14.136 9.375-22.625 9.375h-64v80l-0.256 2.883c-0.674 3.681-2.619 7.009-5.496 9.411zM416 96h160v-32h-160v32zM894.582 668.733c-3.994 1.715-8.305 2.6-12.662 2.595h-745.696c-4.813 0.002-9.564-1.081-13.9-3.17s-8.145-5.128-11.143-8.892c-2.999-3.764-5.109-8.156-6.176-12.849s-1.059-9.566 0.018-14.256c0 0 0 0 0-0.001l80.896-351.998c1.623-7.060 5.592-13.358 11.259-17.869s12.697-6.968 19.941-6.963h560.48c6.907-0.010 13.635 2.217 19.169 6.349 5.535 4.127 9.59 9.938 11.551 16.563l104.32 351.998c1.413 4.777 1.695 9.819 0.819 14.723-0.056 0.307-0.118 0.612-0.179 0.916-0.952 4.564-2.898 8.869-5.693 12.611-0.374 0.499-0.758 0.986-1.162 1.46-2.801 3.324-6.252 6.047-10.153 7.997-0.553 0.279-1.121 0.54-1.69 0.785zM416.576 854.24c-8.215 5.99-18.121 9.218-28.288 9.216h-179.648l-4.64-0.224c-11.872-1.153-22.888-6.685-30.904-15.517s-12.456-20.332-12.456-32.26v-96.448l0.256-2.88c0.712-3.934 2.872-7.459 6.053-9.881s7.155-3.565 11.137-3.203c3.982 0.361 7.684 2.2 10.378 5.155s4.184 6.811 4.176 10.809v96.448l0.256 2.88c0.674 3.684 2.619 7.014 5.496 9.412s6.503 3.71 10.248 3.708h179.648l2.944-0.288c2.911-0.543 5.614-1.884 7.808-3.872l52.384-47.424 3.936-3.2c8.216-5.99 18.121-9.218 28.288-9.216l303.583-0.288c3.681-0.673 7.004-2.613 9.4-5.484 2.401-2.87 3.717-6.489 3.722-10.229v-32.448l0.256-2.88c0.712-3.934 2.872-7.459 6.052-9.881s7.153-3.565 11.136-3.203c3.983 0.361 7.685 2.2 10.378 5.155s4.183 6.811 4.178 10.809v32.448l-0.195 4.608c-1.147 11.883-6.676 22.912-15.519 30.935-8.837 8.023-20.352 12.465-32.287 12.457l-303.649 0.256c-2.911 0.544-5.614 1.884-7.808 3.872l-52.384 47.456-3.936 3.2zM348.231 502.94c-0.764 7.145-3.982 12.709-9.655 16.691-5.618 3.982-12.927 5.973-21.927 5.973-6.327 0-11.754-0.955-16.282-2.864s-7.991-4.5-10.391-7.773c-2.4-3.273-3.627-7.009-3.682-11.209 0-3.491 0.791-6.518 2.373-9.082 1.636-2.564 3.846-4.746 6.627-6.545 2.782-1.745 5.864-3.218 9.246-4.419s6.791-2.209 10.227-3.027l15.709-3.928c6.327-1.473 12.409-3.464 18.245-5.972 5.891-2.509 11.155-5.673 15.791-9.491 4.691-3.818 8.4-8.428 11.127-13.827 2.727-5.402 4.091-11.73 4.091-18.98 0-9.82-2.509-18.468-7.527-25.938-5.018-7.419-12.273-13.23-21.764-17.428-9.436-4.147-20.863-6.216-34.281-6.216-13.037 0-24.355 2.017-33.955 6.052-9.545 4.035-17.018 9.928-22.418 17.674-5.345 7.747-8.236 17.183-8.672 28.308h29.863c0.436-5.837 2.236-10.691 5.4-14.561 3.164-3.876 7.282-6.769 12.355-8.673 5.127-1.91 10.854-2.867 17.182-2.867 6.6 0 12.382 0.983 17.346 2.949 5.018 2.017 8.946 4.797 11.782 8.346 2.836 3.599 4.282 7.798 4.337 12.6-0.055 4.362-1.336 7.962-3.846 10.798-2.509 2.893-6.027 5.289-10.554 7.199-4.473 1.965-9.709 3.71-15.709 5.237l-19.064 4.909c-13.8 3.545-24.709 8.918-32.727 16.118-7.964 7.255-11.945 16.882-11.945 28.882 0 9.873 2.673 18.519 8.018 25.936 5.4 7.418 12.737 13.173 22.009 17.264 9.273 4.146 19.772 6.218 31.5 6.218 11.891 0 22.309-2.073 31.255-6.218 9-4.091 16.064-9.791 21.191-17.1 5.127-7.255 7.773-15.6 7.937-25.036h-29.209zM413.704 549.004h37.146l49.745-121.417h1.964l49.746 121.417h37.146v-167.564h-29.128v115.118h-1.556l-46.305-114.627h-21.766l-46.309 114.872h-1.555v-115.364h-29.127v167.564zM629.417 381.44v167.564h64.143c12.109 0 22.175-1.909 30.193-5.727 8.074-3.764 14.1-8.919 18.084-15.464 4.035-6.545 6.052-13.963 6.052-22.255 0-6.818-1.311-12.655-3.927-17.509-2.616-4.8-6.134-8.7-10.552-11.7s-9.354-5.154-14.812-6.463v-1.636c5.944-0.327 11.648-2.154 17.101-5.482 5.509-3.273 10.010-7.909 13.501-13.909 3.492-5.999 5.233-13.254 5.233-21.763 0-8.673-2.099-16.471-6.298-23.398-4.198-6.876-10.527-12.303-18.98-16.282-8.458-3.983-19.092-5.975-31.913-5.975h-67.825zM659.768 406.804h32.65c11.018 0 18.954 2.099 23.808 6.298 4.91 4.255 7.363 9.713 7.363 16.364 0 4.966-1.229 9.436-3.681 13.42-2.458 4.035-5.944 7.2-10.476 9.491-4.526 2.345-9.923 3.518-16.2 3.518h-33.464v-49.090zM659.768 477.74h30.029c5.238 0 9.953 0.954 14.157 2.864 4.198 1.964 7.501 4.718 9.897 8.264 2.458 3.6 3.681 7.855 3.681 12.764 0 6.491-2.289 11.836-6.871 16.036-4.526 4.2-11.264 6.3-20.209 6.3h-30.684v-46.227z" />
<glyph unicode="&#xe956;" glyph-name="sftp" d="M506.248 220.293c-2.877 2.396-6.503 3.707-10.248 3.707-4.243 0-8.313-1.684-11.314-4.685s-4.686-7.071-4.686-11.315v-80h-64c-8.487 0-16.626-3.369-22.627-9.375-6.001-6.001-9.373-14.136-9.373-22.625l-274.88-0.256c-3.934-0.712-7.459-2.872-9.881-6.052-2.422-3.185-3.564-7.158-3.203-11.136 0.361-3.983 2.201-7.685 5.155-10.378s6.811-4.183 10.809-4.178h272c0-8.489 3.372-16.625 9.373-22.625 6.001-6.006 14.14-9.375 22.627-9.375h160c8.489 0 16.625 3.369 22.625 9.375 6.006 6.001 9.375 14.136 9.375 22.625l306.877 0.256c3.937 0.712 7.46 2.872 9.882 6.052 2.422 3.185 3.569 7.158 3.205 11.136-0.364 3.983-2.202 7.685-5.156 10.378s-6.81 4.183-10.808 4.178h-304c0 8.489-3.369 16.625-9.375 22.625-6.001 6.006-14.136 9.375-22.625 9.375h-64v80l-0.256 2.877c-0.674 3.686-2.619 7.014-5.496 9.416zM416 64v32h160v-32h-160zM894.582 668.733c0.568-0.245 1.137-0.507 1.69-0.785 3.901-1.95 7.352-4.674 10.153-7.997 0.404-0.475 0.788-0.962 1.162-1.46 2.796-3.741 4.736-8.046 5.693-12.611 0.036-0.163 0.067-0.327 0.097-0.491 0.031-0.141 0.056-0.283 0.082-0.425 0.876-4.904 0.594-9.946-0.819-14.723l-104.32-351.998c-1.961-6.625-6.016-12.436-11.551-16.563-5.535-4.132-12.262-6.359-19.169-6.349h-560.48c-7.243-0.005-14.273 2.452-19.94 6.963h-0.001c-5.667 4.511-9.636 10.808-11.259 17.869l-80.896 351.999c-1.078 4.69-1.084 9.563-0.018 14.256 0.933 4.106 2.665 7.983 5.093 11.409 0.347 0.489 0.708 0.97 1.083 1.44 2.811 3.529 6.334 6.421 10.336 8.49 0.267 0.138 0.536 0.272 0.807 0.402 4.065 1.958 8.495 3.033 12.998 3.158 0.3 0.009 0.601 0.013 0.901 0.012h745.696c4.357 0.005 8.668-0.88 12.662-2.595zM416.576 854.24c-8.216 5.99-18.121 9.218-28.288 9.216h-179.648l-4.64-0.224c-11.871-1.153-22.888-6.685-30.904-15.517s-12.456-20.332-12.456-32.26v-96.448l0.256-2.88c0.712-3.934 2.872-7.459 6.053-9.881s7.154-3.565 11.137-3.203c3.982 0.361 7.684 2.2 10.378 5.155s4.184 6.811 4.176 10.809v96.448l0.256 2.88c0.674 3.684 2.619 7.014 5.496 9.412s6.503 3.71 10.248 3.708h179.648l2.944-0.288c2.911-0.543 5.614-1.884 7.808-3.872l52.384-47.424 3.936-3.2c8.215-5.99 18.121-9.218 28.288-9.216l303.583-0.288c3.681-0.673 7.004-2.613 9.4-5.484 2.401-2.87 3.717-6.489 3.722-10.229v-32.448l0.256-2.88c0.712-3.934 2.872-7.459 6.052-9.881s7.153-3.565 11.136-3.203c3.983 0.361 7.685 2.2 10.378 5.155s4.183 6.811 4.178 10.809v32.448l-0.195 4.608c-1.147 11.883-6.676 22.912-15.519 30.935-8.837 8.023-20.352 12.465-32.287 12.457l-303.649 0.256c-2.911 0.544-5.614 1.884-7.808 3.872l-52.384 47.456-3.936 3.2zM312.976 504.271c5.673-3.982 8.891-9.545 9.655-16.691h29.209c-0.164 9.436-2.809 17.782-7.937 25.036-5.127 7.309-12.191 13.009-21.191 17.1-8.945 4.146-19.363 6.218-31.255 6.218-11.727 0-22.227-2.073-31.5-6.218-9.273-4.091-16.609-9.845-22.009-17.264-5.345-7.418-8.018-16.063-8.018-25.936 0-12 3.982-21.627 11.945-28.882 8.018-7.2 18.927-12.573 32.727-16.116l19.064-4.91c6-1.526 11.236-3.272 15.709-5.238 4.527-1.91 8.045-4.306 10.554-7.199 2.509-2.836 3.791-6.436 3.846-10.798-0.055-4.803-1.5-9.001-4.337-12.6-2.836-3.548-6.764-6.328-11.782-8.346-4.964-1.966-10.745-2.949-17.346-2.949-6.327 0-12.055 0.957-17.182 2.867-5.073 1.905-9.191 4.797-12.355 8.673-3.164 3.871-4.964 8.724-5.4 14.561h-29.863c0.436-11.126 3.327-20.562 8.672-28.308 5.4-7.747 12.873-13.64 22.418-17.674 9.6-4.035 20.918-6.052 33.954-6.052 13.418 0 24.846 2.068 34.282 6.216 9.491 4.198 16.745 10.010 21.764 17.428 5.018 7.47 7.527 16.118 7.527 25.938 0 7.25-1.363 13.578-4.091 18.98s-6.436 10.010-11.127 13.829c-4.636 3.816-9.9 6.98-15.791 9.489-5.836 2.509-11.918 4.5-18.245 5.972l-15.709 3.928c-3.437 0.818-6.845 1.827-10.227 3.027s-6.464 2.673-9.246 4.419c-2.782 1.8-4.991 3.982-6.627 6.545-1.582 2.564-2.373 5.591-2.373 9.082 0.055 4.2 1.282 7.936 3.682 11.209s5.863 5.864 10.391 7.773c4.527 1.909 9.954 2.864 16.282 2.864 9 0 16.309-1.991 21.927-5.973zM381.192 533.644v-167.564h30.354v71.183h69.627v25.444h-69.627v45.491h76.991v25.445h-107.345zM508.829 533.644v-25.445h51.791v-142.118h30.111v142.118h51.789v25.445h-133.69zM668.293 533.644v-167.564h30.351v56.617h32.077c12.928 0 23.808 2.376 32.645 7.122 8.837 4.797 15.519 11.372 20.045 19.716 4.526 8.346 6.789 17.891 6.789 28.637 0 10.636-2.263 20.127-6.789 28.472-4.475 8.4-11.1 15-19.881 19.8-8.73 4.8-19.528 7.2-32.399 7.2h-62.838zM698.644 447.652h27.986c7.526 0 13.691 1.31 18.488 3.928 4.803 2.618 8.346 6.218 10.639 10.8 2.345 4.582 3.517 9.845 3.517 15.791s-1.172 11.182-3.517 15.709c-2.294 4.528-5.868 8.046-10.721 10.555-4.797 2.564-10.988 3.845-18.57 3.845h-27.822v-60.628z" />
<glyph unicode="&#xe957;" glyph-name="feedback" d="M672 640h-320c-17.6 0-32 14.4-32 32s14.4 32 32 32h320c17.6 0 32-14.4 32-32s-14.4-32-32-32zM544 512h-192c-17.6 0-32 14.4-32 32s14.4 32 32 32h192c17.6 0 32-14.4 32-32s-14.4-32-32-32zM960 512v14.4l-1.6 1.6v3.2l-6.4 6.4h-1.6l-118.4 70.4v192c0 52.8-43.2 96-96 96h-448c-52.8 0-96-43.2-96-96v-192l-112-68.8h-1.6l-6.4-6.4v-3.2l-1.6-1.6v-430.4c0-52.8 43.2-96 96-96h704c52.8 0 96 43.2 96 96l-6.4 414.4zM867.2 512l-35.2-20.8v43.2l35.2-22.4zM288 833.6h448c17.6 0 32-14.4 32-32v-350.4l-256-156.8-256 156.8v350.4c0 17.6 14.4 32 32 32zM192 491.2l-35.2 20.8 35.2 20.8v-41.6zM864 64h-704c-17.6 0-32 14.4-32 32v358.4l368-225.6c1.6-1.6 3.2-1.6 4.8-1.6s1.6 0 3.2-1.6c3.2 0 4.8-1.6 8-1.6s4.8 0 8 1.6c1.6 0 1.6 0 3.2 1.6 1.6 0 3.2 1.6 4.8 1.6l368 225.6v-358.4c0-17.6-14.4-32-32-32z" />
<glyph unicode="&#xe958;" glyph-name="s3compatible" d="M620.757 789.333c-155.434 0-285.76-107.2-321.194-251.669-2.85 0.161-6.191 0.254-9.552 0.256h-0.006c-113.024 0-204.672-91.627-204.672-204.672 0-0.082 0-0.18 0-0.278 0-56.404 22.914-107.457 59.942-144.357l0.006-0.006c36.887-36.982 87.897-59.862 144.25-59.862 0.167 0 0.334 0 0.501 0.001h-0.026c56.581 0.026 107.783 23.034 144.783 60.194l0.007 0.008c32.106 32.107 50.133 75.094 55.317 122.838l-74.112 5.823c-16.79 2.090-22.187 14.805-11.968 28.373l125.568 155.351c10.155 13.546 23.957 11.882 30.613-3.755l71.19-173.974c6.656-15.637-1.75-26.688-18.56-24.618l-55.126 5.077c-6.25-57.643-32.192-108.523-68.458-148.864 38.654-17.19 83.752-27.2 131.188-27.2 0.109 0 0.218 0 0.327 0h-0.017c182.614 0 330.667 148.053 330.667 330.667s-148.053 330.666-330.667 330.666z" />
<glyph unicode="&#xe959;" glyph-name="desktop" horiz-adv-x="887" d="M723.49 863.029h-559.515c-44.161 0-79.975-41.325-79.975-92.279v-461.126c0-50.866 35.814-92.188 79.975-92.188h159.873v-92.194h-159.873v-92.276h559.515v92.276h-159.872v92.194h159.872c44.080 0 79.899 41.322 79.899 92.187v461.127c0 50.954-35.82 92.279-79.899 92.279z" />
<glyph unicode="&#xe95a;" glyph-name="phone" horiz-adv-x="751" d="M547.718 899c39.814 0 72.090-44.012 72.090-98.304v-704.515c0-54.286-32.276-98.304-72.090-98.304h-344.429c-39.814 0-72.089 44.018-72.089 98.304v704.515c0 54.292 32.275 98.304 72.089 98.304h344.429zM375.503 281.87c-24.331 0-44.055-26.894-44.055-60.079 0-33.178 19.724-60.075 44.055-60.075s44.055 26.897 44.055 60.075c0 33.184-19.724 60.079-44.055 60.079z" />
<glyph unicode="&#xe95b;" glyph-name="send" d="M1015.485 483.536c-7.599 15.198-20.198 27.797-35.396 35.396l-865.299 432.649c-18.998 9.499-40.495 10.999-60.593 4.299s-36.296-20.898-45.795-39.795c-9.899-19.898-11.099-43.095-3.1-63.893l155.382-404.253-155.382-404.153c-7.599-19.798-6.999-41.395 1.6-60.693 8.599-19.398 24.297-34.196 43.995-41.795 9.199-3.5 18.798-5.299 28.497-5.299 12.199 0 24.397 2.8 35.496 8.299l865.199 432.749c39.095 19.598 54.994 67.392 35.396 106.488zM79.095 15.491l151.182 392.954h310.364c21.797 0 39.495 17.698 39.495 39.495s-17.698 39.495-39.495 39.495h-310.364l-150.782 393.354 865.199-432.649-865.599-432.649z" />
<glyph unicode="&#xe95c;" glyph-name="loading" d="M512 864c-229.717 0-416-186.283-416-416s186.283-416 416-416v104.021c-172.283 0.024-311.936 139.693-311.936 311.979 0 172.301 139.678 311.979 311.979 311.979s311.979-139.678 311.979-311.979v0h103.979c0 229.717-186.283 416-416 416z" />
<glyph unicode="&#xe95d;" glyph-name="import" d="M512 576c23.564 0 42.667-19.103 42.667-42.667v-341.333h130.987c5.493-0.014 10.495-2.101 14.269-5.52l-0.018 0.016 2.688-2.901c2.721-3.544 4.36-8.042 4.36-12.923 0-6.884-3.26-13.006-8.321-16.906l-0.050-0.037-165.717-126.464c-5.324-4.101-12.087-6.573-19.428-6.573-7.365 0-14.15 2.488-19.558 6.67l0.074-0.055-164.48 126.464c-5.075 3.939-8.309 10.040-8.309 16.896 0 11.763 9.521 21.303 21.277 21.333h126.894v341.333c0 23.564 19.103 42.667 42.667 42.667v0zM741.675 277.632c-21.296 2.606-37.627 20.58-37.627 42.368 0 23.548 19.076 42.64 42.617 42.667h106.669v426.667h-682.667v-426.667h106.667c23.564 0 42.667-19.103 42.667-42.667s-19.103-42.667-42.667-42.667v0h-106.667c-47.128 0-85.333 38.205-85.333 85.333v426.667c0 47.128 38.205 85.333 85.333 85.333h682.667c47.128 0 85.333-38.205 85.333-85.333v0-426.667c0-47.128-38.205-85.333-85.333-85.333h-106.667z" />
</font>
</defs>
</svg>
