<svg xmlns="http://www.w3.org/2000/svg" width="139.905" height="126.831" viewBox="0 0 139.905 126.831">
  <g id="组_752" data-name="组 752" transform="translate(23.124 -1.214)" opacity="0.41">
    <path id="路径_2306" data-name="路径 2306" d="M-23.071,108.481A19.456,19.456,0,0,1-18.21,95.647c5.884-6.992,9.892-14.88,11.043-24,1.791-13.9-1.023-26.562-10.489-37.307A20.116,20.116,0,0,1-23.114,20.01c.3-9.636,8.1-17.694,18.206-18.717,9-.9,18.163,5.884,20.124,14.965A19.275,19.275,0,0,1,11.038,33.4C5.112,40.433,1.019,48.321-.218,57.573-2.051,71.728.933,84.519,10.569,95.391c4.946,5.628,6.438,12.066,4.178,19.229-2.942,9.252-12.194,14.667-21.958,13.089C-16.249,126.217-23.071,117.946-23.071,108.481Z" transform="translate(0 0)" fill="#fff"/>
    <path id="路径_2307" data-name="路径 2307" d="M252.751,20.952a19.02,19.02,0,0,1-4.775,12.663c-5.926,7.035-10.02,14.965-11.171,24.175-1.791,13.9,1.066,26.562,10.489,37.307a20.3,20.3,0,0,1,5.457,14.326c-.256,9.636-8.016,17.694-18.163,18.675-9,.9-18.163-5.926-20.124-14.965a19.173,19.173,0,0,1,4.221-17.14c5.926-7.035,10.062-14.923,11.213-24.175,1.791-14.07-1.066-26.818-10.659-37.648-4.946-5.585-6.566-12.023-4.349-19.186a19.435,19.435,0,0,1,22.043-13.26C245.929,3.216,252.751,11.487,252.751,20.952Z" transform="translate(-135.975 -0.132)" fill="#fff"/>
    <path id="路径_2308" data-name="路径 2308" d="M96.9,124.617a18.8,18.8,0,1,1,18.632,18.888A18.662,18.662,0,0,1,96.9,124.617Z" transform="translate(-68.85 -60.052)" fill="#fff"/>
  </g>
</svg>
